<?xml version="1.0" standalone="no"?>
<!DOCTYPE svg PUBLIC "-//W3C//DTD SVG 20010904//EN"
 "http://www.w3.org/TR/2001/REC-SVG-20010904/DTD/svg10.dtd">
<svg version="1.0" xmlns="http://www.w3.org/2000/svg"
 width="451.000000pt" height="451.000000pt" viewBox="0 0 451.000000 451.000000"
 preserveAspectRatio="xMidYMid meet">

<g transform="translate(0.000000,451.000000) scale(0.100000,-0.100000)"
fill="#000000" stroke="none">
<path d="M0 2255 l0 -2255 869 0 869 0 -9 38 c-5 20 -12 53 -15 72 -3 19 -10
46 -14 60 -5 14 -11 50 -14 80 -3 30 -10 100 -16 155 -23 212 -5 484 34 523
19 19 59 -2 52 -26 -37 -121 -39 -470 -5 -722 18 -137 29 -180 46 -180 11 0
14 6 9 22 -3 13 -13 81 -21 153 -8 72 -20 164 -25 205 -8 63 -14 229 -10 280
1 8 3 47 4 85 4 121 23 173 55 156 28 -15 144 -43 176 -43 16 1 35 -4 42 -10
7 -6 28 -8 46 -5 31 5 35 2 46 -28 11 -32 60 -83 111 -116 23 -15 25 -23 30
-119 4 -75 9 -105 19 -108 10 -3 12 14 10 91 l-4 95 21 -23 c18 -19 22 -44 32
-187 11 -150 21 -220 55 -390 l11 -58 194 0 194 0 -6 23 c-4 12 -10 30 -13 40
-4 12 0 17 15 17 12 0 23 -4 27 -10 3 -5 11 -7 18 -5 17 7 45 -13 32 -23 -26
-18 -10 -37 33 -39 45 -2 55 10 22 27 -14 8 -19 17 -15 30 3 10 1 21 -5 25
-15 9 -12 35 5 35 19 0 20 18 0 22 -10 2 -12 8 -5 17 7 12 11 12 23 2 21 -17
141 -13 199 7 44 15 47 18 46 48 -1 18 -5 31 -10 28 -4 -3 -8 10 -8 30 0 48
-10 72 -22 54 -7 -9 -8 -5 -4 14 7 31 -2 60 -16 52 -6 -4 -15 0 -20 7 -8 11
-9 10 -4 -3 4 -13 -2 -19 -22 -24 -15 -4 -35 -16 -45 -28 -17 -21 -17 -21 -29
-1 -12 19 -12 19 -18 -5 -10 -40 -35 -31 -36 12 0 21 -4 41 -9 45 -4 5 -5 2
-1 -4 4 -7 2 -13 -5 -13 -7 0 -9 -8 -6 -21 8 -28 -13 -85 -24 -67 -7 10 -9 9
-9 -4 0 -10 5 -18 10 -18 6 0 10 -7 10 -15 0 -24 -27 -18 -34 8 -4 15 0 27 15
39 11 10 18 22 15 27 -4 5 -2 21 4 35 8 21 7 26 -6 26 -8 0 -13 -4 -10 -8 2
-4 -4 -9 -15 -9 -23 -2 -24 4 -4 24 9 8 13 18 10 21 -9 9 -34 -32 -35 -57 0
-16 4 -22 15 -17 18 6 21 -19 4 -30 -18 -11 -49 37 -49 75 0 28 -11 44 -74
105 -40 39 -81 87 -91 106 -13 24 -14 31 -4 23 8 -6 52 -26 98 -43 72 -28 94
-43 150 -99 96 -97 92 -94 138 -76 28 11 55 36 93 85 47 63 150 145 150 120 0
-5 -5 -12 -10 -15 -19 -11 -78 -113 -89 -150 -7 -27 -5 -63 10 -148 10 -62 19
-119 19 -128 0 -13 -16 -18 -72 -24 -40 -4 -100 -11 -133 -15 -43 -4 -55 -8
-42 -14 17 -8 119 -4 213 8 48 6 54 -3 54 -81 l0 -43 228 0 c199 1 223 2 196
14 -35 16 -48 42 -69 141 -19 91 -19 95 5 95 18 0 20 6 19 53 0 39 -2 47 -9
31 -25 -62 -40 -12 -34 111 15 331 63 589 166 890 32 94 185 398 233 463 49
67 72 83 86 61 6 -10 9 -10 9 -1 0 7 13 12 30 12 17 0 30 -5 30 -11 0 -6 -9
-8 -22 -4 -15 4 -18 3 -10 -3 10 -6 7 -13 -9 -28 -25 -22 -95 -112 -123 -158
-70 -115 -160 -313 -190 -421 -42 -149 -59 -201 -70 -207 -7 -5 -4 -8 7 -8 21
0 20 -1 87 205 50 154 170 421 197 438 7 4 13 13 13 20 1 7 21 34 45 61 37 41
51 50 82 52 21 1 40 3 43 3 2 1 -1 6 -7 12 -8 8 -17 7 -34 -2 -24 -12 -24 -12
-5 9 17 20 21 20 47 7 15 -8 40 -15 54 -15 17 0 29 -7 35 -22 7 -18 9 -19 9
-5 1 21 8 21 91 2 93 -22 120 -35 131 -62 5 -13 13 -21 19 -18 7 4 10 480 10
1401 l0 1394 -797 0 -798 0 -2 -27 c0 -15 -6 -29 -12 -31 -5 -2 -7 -10 -4 -18
3 -9 13 -12 24 -9 11 4 19 2 19 -4 0 -6 -7 -11 -15 -11 -8 0 -15 -4 -15 -10 0
-5 -13 -10 -30 -10 -29 0 -40 13 -21 24 5 3 7 15 4 27 -4 13 2 27 16 40 11 11
21 21 21 23 0 2 -40 4 -89 5 -70 1 -90 -2 -95 -14 -7 -19 -26 -19 -26 0 0 12
-14 15 -65 15 -37 0 -65 -4 -65 -10 0 -5 -7 -10 -15 -10 -8 0 -15 5 -15 10 0
6 -110 10 -309 10 l-308 0 4 -35 c4 -36 -7 -44 -37 -25 -13 8 -13 10 1 10 12
0 16 8 15 25 -1 23 -5 25 -48 25 -27 0 -49 -5 -52 -12 -5 -10 -7 -10 -12 0 -9
19 -110 16 -118 -4 -9 -23 -8 -24 14 -24 21 0 27 -15 10 -25 -6 -4 -17 -1 -25
5 -8 6 -19 9 -24 6 -14 -9 -25 14 -12 27 20 20 11 27 -35 27 -38 0 -47 -4 -51
-21 -4 -12 -11 -18 -20 -15 -8 3 -17 6 -19 6 -2 0 -4 7 -4 15 0 13 -90 15
-750 15 l-750 0 0 -2255z m3165 2227 c0 -18 -20 -15 -23 4 -3 10 1 15 10 12 7
-3 13 -10 13 -16z m-2200 -30 c-4 -32 -17 -62 -27 -62 -5 0 -6 5 -3 10 4 6 1
18 -6 26 -16 20 8 69 26 54 7 -6 11 -18 10 -28z m819 7 c4 5 0 12 -6 14 -10 4
-10 6 -1 6 7 1 17 -9 24 -20 16 -30 -7 -42 -40 -21 -14 9 -27 17 -29 18 -1 0
1 9 4 19 7 17 9 17 25 -4 10 -12 20 -17 23 -12z m199 24 c4 -3 2 -12 -4 -20
-9 -10 -15 -10 -25 -2 -8 6 -11 15 -8 20 6 11 28 12 37 2z m534 -8 c-4 -8 -2
-17 4 -20 5 -4 6 -11 3 -17 -4 -7 -14 -1 -25 13 -24 31 -24 39 2 39 14 0 19
-5 16 -15z m-1419 -13 c18 -12 5 -39 -19 -38 -19 1 -21 8 -12 34 6 14 13 15
31 4z m62 -2 c0 -5 -4 -10 -10 -10 -5 0 -10 5 -10 10 0 6 5 10 10 10 6 0 10
-4 10 -10z m52 -15 c0 -5 -5 -11 -11 -13 -6 -2 -11 4 -11 13 0 9 5 15 11 13 6
-2 11 -8 11 -13z m812 -11 c9 -22 -3 -32 -14 -14 -12 19 -12 30 -1 30 5 0 12
-7 15 -16z m582 -26 c-2 -44 -18 -58 -25 -22 -2 10 -8 24 -13 31 -13 16 -2 33
22 33 15 0 18 -7 16 -42z m209 24 c0 -18 -20 -15 -23 4 -3 10 1 15 10 12 7 -3
13 -10 13 -16z m355 3 c0 -8 -7 -15 -15 -15 -8 0 -15 7 -15 15 0 8 7 15 15 15
8 0 15 -7 15 -15z m-1520 -5 c0 -5 -4 -10 -10 -10 -5 0 -10 5 -10 10 0 6 5 10
10 10 6 0 10 -4 10 -10z m1644 -5 c15 -11 17 -18 9 -26 -9 -9 -16 -8 -27 4
-17 16 -21 37 -8 37 4 0 16 -7 26 -15z m-2038 -18 c3 -24 -30 -18 -34 7 -3 12
1 17 14 14 9 -1 18 -11 20 -21z m594 8 c0 -8 -5 -15 -11 -15 -6 0 -8 -9 -4
-20 5 -16 2 -20 -14 -20 -24 0 -28 25 -6 34 8 3 15 9 14 13 -3 15 1 23 11 23
6 0 10 -7 10 -15z m250 2 c0 -8 -3 -17 -7 -20 -9 -9 -34 13 -27 24 8 14 34 11
34 -4z m-710 -44 c0 -7 -9 -13 -20 -13 -21 0 -45 34 -35 50 8 12 54 -20 55
-37z m1970 27 c0 -5 -2 -10 -4 -10 -3 0 -8 5 -11 10 -3 6 -1 10 4 10 6 0 11
-4 11 -10z m-1740 -10 c0 -5 -4 -10 -9 -10 -6 0 -13 5 -16 10 -3 6 1 10 9 10
9 0 16 -4 16 -10z m-486 -23 c15 -24 -3 -35 -20 -13 -8 11 -14 24 -14 29 0 13
22 3 34 -16z m794 0 c2 -10 -3 -17 -11 -17 -16 0 -30 24 -19 34 10 10 27 1 30
-17z m-631 -7 c-1 -11 -7 -20 -14 -20 -11 0 -11 5 -3 20 6 11 13 20 15 20 2 0
3 -9 2 -20z m485 -2 c-7 -7 -12 -8 -12 -2 0 14 12 26 19 19 2 -3 -1 -11 -7
-17z m-570 -3 c0 -5 -5 -11 -11 -13 -6 -2 -11 4 -11 13 0 9 5 15 11 13 6 -2
11 -8 11 -13z m798 5 c0 -5 -4 -10 -10 -10 -5 0 -10 5 -10 10 0 6 5 10 10 10
6 0 10 -4 10 -10z m70 0 c0 -5 -7 -10 -15 -10 -8 0 -15 5 -15 10 0 6 7 10 15
10 8 0 15 -4 15 -10z m152 -5 c0 -5 -5 -11 -11 -13 -6 -2 -11 4 -11 13 0 9 5
15 11 13 6 -2 11 -8 11 -13z m1136 -7 c3 -16 -24 -32 -39 -22 -5 3 -9 13 -9
23 0 22 44 21 48 -1z m-2108 -14 c0 -14 -12 -19 -23 -8 -9 9 4 35 14 28 5 -3
9 -12 9 -20z m1630 16 c0 -5 -4 -10 -10 -10 -5 0 -10 5 -10 10 0 6 5 10 10 10
6 0 10 -4 10 -10z m580 6 c0 -3 -4 -8 -10 -11 -5 -3 -10 -1 -10 4 0 6 5 11 10
11 6 0 10 -2 10 -4z m-2430 -31 c0 -8 -7 -15 -15 -15 -8 0 -15 7 -15 15 0 8 7
15 15 15 8 0 15 -7 15 -15z m2210 5 c0 -5 -5 -10 -11 -10 -5 0 -7 5 -4 10 3 6
8 10 11 10 2 0 4 -4 4 -10z m187 -9 c3 -11 11 -21 19 -23 8 -2 4 -8 -12 -15
-23 -10 -26 -9 -35 14 -5 13 -7 29 -3 34 9 15 26 10 31 -10z m-2722 -3 c5 4 5
2 2 -5 -4 -6 -4 -13 0 -16 5 -2 3 -2 -4 -1 -7 2 -15 -1 -19 -7 -4 -6 -11 -6
-20 2 -11 9 -12 15 -3 25 8 10 15 11 24 4 6 -5 16 -6 20 -2z m2785 2 c0 -5 -7
-10 -15 -10 -8 0 -15 5 -15 10 0 6 7 10 15 10 8 0 15 -4 15 -10z m-860 -15 c0
-8 -4 -15 -10 -15 -5 0 -10 7 -10 15 0 8 5 15 10 15 6 0 10 -7 10 -15z m581
-4 c2 -15 7 -40 14 -60 5 -16 2 -21 -10 -21 -11 0 -15 5 -12 15 3 7 -2 24 -13
37 l-19 23 -8 -22 c-8 -22 -9 -22 -20 -3 -11 17 -9 21 15 33 26 13 51 12 53
-2z m744 9 c-3 -5 -10 -10 -16 -10 -5 0 -9 5 -9 10 0 6 7 10 16 10 8 0 12 -4
9 -10z m-2785 -15 c0 -8 -7 -15 -15 -15 -16 0 -20 12 -8 23 11 12 23 8 23 -8z
m110 -32 c0 -10 -6 -13 -16 -9 -9 3 -20 6 -25 6 -16 0 -9 18 9 23 23 5 32 -1
32 -20z m1628 9 c2 -7 -3 -12 -12 -12 -9 0 -16 7 -16 16 0 17 22 14 28 -4z
m-1874 0 c7 -11 -6 -27 -27 -35 -11 -4 -20 -1 -24 9 -9 24 38 47 51 26z m326
-12 c0 -13 -19 -22 -30 -15 -14 9 0 34 16 28 8 -3 14 -9 14 -13z m2261 7 c-1
-12 -15 -9 -19 4 -3 6 1 10 8 8 6 -3 11 -8 11 -12z m-2751 -12 c0 -8 -6 -15
-14 -15 -8 0 -16 7 -20 15 -4 10 1 15 14 15 11 0 20 -7 20 -15z m2524 0 c21
-16 14 -34 -14 -32 -14 1 -20 9 -20 24 0 26 7 28 34 8z m509 -1 c9 -10 -4 -34
-19 -34 -8 0 -14 6 -14 13 0 22 19 35 33 21z m-2719 -12 c2 -4 1 -14 -3 -20
-10 -17 -41 -4 -34 14 6 15 29 19 37 6z m2389 -43 c-17 -34 -33 -46 -33 -25 0
9 -6 13 -14 10 -18 -7 -31 15 -18 28 8 8 16 7 27 -2 8 -7 18 -10 22 -6 3 3 1
6 -5 6 -7 0 -12 9 -12 20 0 17 3 18 24 9 22 -10 23 -13 9 -40z m-476 24 c2 -6
-4 -10 -13 -9 -10 2 -20 8 -22 15 -3 8 3 12 14 9 9 -1 19 -8 21 -15z m-2315
-7 c15 -11 16 -16 4 -31 -8 -11 -19 -16 -30 -12 -10 4 -15 3 -11 -3 3 -6 -3
-10 -14 -10 -28 0 -26 14 4 34 14 9 23 21 20 26 -9 14 7 12 27 -4z m2418 -41
c12 7 40 -12 40 -26 0 -14 -28 -11 -33 4 -3 9 -9 9 -25 0 -17 -10 -21 -9 -26
3 -3 9 -4 20 0 25 3 5 0 9 -5 9 -15 0 -14 27 2 33 6 2 18 -9 24 -25 7 -17 17
-26 23 -23z m668 36 c3 -8 -1 -12 -9 -9 -7 2 -15 10 -17 17 -3 8 1 12 9 9 7
-2 15 -10 17 -17z m-603 -11 c3 -5 1 -10 -4 -10 -6 0 -11 5 -11 10 0 6 2 10 4
10 3 0 8 -4 11 -10z m133 -2 c17 -17 15 -28 -7 -28 -22 0 -35 15 -26 30 8 13
18 13 33 -2z m52 2 c0 -5 -4 -10 -10 -10 -5 0 -10 5 -10 10 0 6 5 10 10 10 6
0 10 -4 10 -10z m-2310 -15 c7 -8 19 -15 26 -15 19 0 18 -10 -3 -26 -27 -20
-43 -17 -43 9 0 16 -3 19 -9 8 -12 -18 -42 -7 -35 13 5 13 18 20 45 25 4 0 12
-6 19 -14z m1760 5 c-8 -5 -19 -10 -25 -10 -5 0 -3 5 5 10 8 5 20 10 25 10 6
0 3 -5 -5 -10z m437 -16 c-9 -9 -28 6 -21 18 4 6 10 6 17 -1 6 -6 8 -13 4 -17z
m443 11 c0 -8 -4 -15 -10 -15 -5 0 -10 7 -10 15 0 8 5 15 10 15 6 0 10 -7 10
-15z m-2371 -31 c-12 -15 -41 -19 -53 -7 -4 4 3 15 16 24 27 21 57 7 37 -17z
m1657 9 c-10 -10 -19 5 -10 18 6 11 8 11 12 0 2 -7 1 -15 -2 -18z m-2036 7 c0
-5 -7 -10 -15 -10 -8 0 -15 5 -15 10 0 6 7 10 15 10 8 0 15 -4 15 -10z m300 0
c0 -5 -4 -10 -10 -10 -5 0 -10 5 -10 10 0 6 5 10 10 10 6 0 10 -4 10 -10z
m1648 -1 c-2 -6 -8 -10 -13 -10 -5 0 -11 4 -13 10 -2 6 4 11 13 11 9 0 15 -5
13 -11z m-2033 -10 c10 -15 -1 -23 -20 -15 -9 3 -13 10 -10 16 8 13 22 13 30
-1z m35 7 c0 -3 -4 -8 -10 -11 -5 -3 -10 -1 -10 4 0 6 5 11 10 11 6 0 10 -2
10 -4z m2685 -6 c3 -5 2 -17 -3 -26 -8 -14 -10 -14 -21 0 -13 15 -8 36 9 36 5
0 12 -4 15 -10z m-2775 -11 c0 -16 -26 -39 -44 -39 -24 0 -19 24 7 36 30 15
37 16 37 3z m2236 0 c10 -17 -13 -36 -27 -22 -12 12 -4 33 11 33 5 0 12 -5 16
-11z m464 -8 c0 -10 -9 -21 -21 -24 -11 -3 -23 -14 -26 -25 -3 -13 -11 -18
-23 -15 -21 6 -16 33 6 33 8 0 19 11 24 25 11 29 40 34 40 6z m-2380 -1 c0 -5
-4 -10 -10 -10 -5 0 -10 5 -10 10 0 6 5 10 10 10 6 0 10 -4 10 -10z m82 -12
c-2 -10 2 -18 7 -18 6 0 8 -6 5 -14 -3 -8 -1 -17 5 -21 20 -11 12 -33 -14 -37
-19 -4 -25 -1 -25 13 0 11 5 19 10 19 19 0 10 21 -22 51 l-33 30 35 -3 c27 -2
34 -7 32 -20z m2128 4 c0 -4 -11 -12 -25 -19 -29 -13 -31 -10 -8 16 15 18 33
20 33 3z m-1915 -22 c-5 -8 -11 -8 -17 -2 -6 6 -7 16 -3 22 5 8 11 8 17 2 6
-6 7 -16 3 -22z m1455 16 c0 -8 -7 -16 -15 -20 -8 -3 -15 -15 -15 -26 0 -29
-18 -25 -26 6 -5 18 -1 29 12 39 24 18 44 19 44 1z m-1975 -6 c3 -5 1 -10 -4
-10 -6 0 -11 5 -11 10 0 6 2 10 4 10 3 0 8 -4 11 -10z m2039 -21 c-10 -16 -24
-9 -24 12 0 18 2 19 15 9 8 -7 12 -16 9 -21z m-1961 15 c9 -10 -4 -34 -19 -34
-8 0 -14 6 -14 13 0 22 19 35 33 21z m2537 -14 c0 -5 -2 -10 -4 -10 -3 0 -8 5
-11 10 -3 6 -1 10 4 10 6 0 11 -4 11 -10z m60 -5 c0 -8 -4 -15 -10 -15 -5 0
-10 7 -10 15 0 8 5 15 10 15 6 0 10 -7 10 -15z m-2680 -39 c-7 -7 -14 -6 -22
2 -10 10 -10 15 2 22 17 11 34 -10 20 -24z m148 26 c17 -11 4 -42 -14 -35 -8
3 -14 14 -14 24 0 20 8 23 28 11z m100 -9 c-3 -16 -52 -36 -62 -25 -3 3 -6 13
-6 22 0 12 10 17 36 18 28 1 35 -2 32 -15z m-518 -24 c0 -24 -23 -21 -28 4 -2
10 3 17 12 17 10 0 16 -9 16 -21z m2314 -4 c17 -26 17 -26 -11 -19 -35 9 -37
10 -30 29 9 22 22 19 41 -10z m-2269 5 c3 -5 2 -10 -4 -10 -5 0 -13 5 -16 10
-3 6 -2 10 4 10 5 0 13 -4 16 -10z m-203 -15 c0 -5 -5 -11 -11 -13 -6 -2 -11
4 -11 13 0 9 5 15 11 13 6 -2 11 -8 11 -13z m358 0 c0 -8 -4 -15 -10 -15 -5 0
-10 7 -10 15 0 8 5 15 10 15 6 0 10 -7 10 -15z m448 7 c15 -10 5 -42 -13 -42
-18 0 -26 15 -19 34 7 18 13 19 32 8z m-878 -18 c0 -10 6 -14 14 -11 8 3 19 0
25 -7 12 -14 -20 -48 -36 -37 -14 9 -25 71 -13 71 6 0 10 -7 10 -16z m2390 6
c0 -5 -2 -10 -4 -10 -3 0 -8 5 -11 10 -3 6 -1 10 4 10 6 0 11 -4 11 -10z
m-1799 -15 c0 -5 6 -16 11 -23 8 -9 8 -16 0 -24 -9 -9 -18 -5 -37 16 -14 15
-25 32 -25 37 0 13 50 7 51 -6z m-111 -8 c0 -8 -3 -17 -7 -20 -9 -9 -34 13
-27 24 8 14 34 11 34 -4z m265 3 c3 -5 1 -10 -4 -10 -6 0 -11 5 -11 10 0 6 2
10 4 10 3 0 8 -4 11 -10z m-355 -10 c0 -5 -5 -10 -11 -10 -5 0 -7 5 -4 10 3 6
8 10 11 10 2 0 4 -4 4 -10z m-550 -20 c0 -13 -7 -20 -20 -20 -13 0 -20 7 -20
20 0 13 7 20 20 20 13 0 20 -7 20 -20z m516 6 c13 -14 19 -36 9 -36 -16 0 -55
26 -55 37 0 17 28 17 46 -1z m354 -5 c0 -5 -11 -8 -25 -8 -14 0 -25 4 -25 9 0
5 4 7 9 3 5 -3 12 -1 16 5 7 11 25 4 25 -9z m168 -40 c3 -28 1 -33 -13 -27 -9
3 -21 6 -27 6 -6 0 -6 6 2 15 10 13 9 15 -8 15 -20 0 -36 13 -28 21 3 2 19 4
38 4 30 0 33 -3 36 -34z m1720 20 c3 -8 -1 -12 -9 -9 -7 2 -15 10 -17 17 -3 8
1 12 9 9 7 -2 15 -10 17 -17z m-2638 -11 c11 -21 4 -25 -19 -11 -7 5 -10 14
-7 20 10 15 14 14 26 -9z m154 -1 c-3 -5 -10 -7 -15 -3 -5 3 -7 10 -3 15 3 5
10 7 15 3 5 -3 7 -10 3 -15z m96 11 c0 -5 -4 -10 -10 -10 -5 0 -10 5 -10 10 0
6 5 10 10 10 6 0 10 -4 10 -10z m2180 -4 c0 -25 -12 -46 -26 -46 -15 0 -18 18
-8 44 8 20 34 21 34 2z m-1680 0 c0 -3 -4 -8 -10 -11 -5 -3 -10 -1 -10 4 0 6
5 11 10 11 6 0 10 -2 10 -4z m-542 -12 c12 -4 22 -13 22 -20 0 -17 -1 -17 -34
-4 -14 5 -26 14 -26 20 0 11 6 12 38 4z m240 -12 c2 -7 -3 -12 -12 -12 -9 0
-16 7 -16 16 0 17 22 14 28 -4z m92 8 c0 -5 -4 -10 -10 -10 -5 0 -10 5 -10 10
0 6 5 10 10 10 6 0 10 -4 10 -10z m70 0 c0 -5 -7 -10 -16 -10 -8 0 -12 5 -9
10 3 6 10 10 16 10 5 0 9 -4 9 -10z m-684 -11 c3 -6 1 -16 -5 -22 -9 -9 -14
-8 -21 3 -9 15 -4 30 10 30 5 0 12 -5 16 -11z m334 -9 c0 -5 -4 -10 -10 -10
-5 0 -10 5 -10 10 0 6 5 10 10 10 6 0 10 -4 10 -10z m-445 -20 c17 -19 17 -20
-1 -21 -46 -3 -59 4 -51 26 9 21 30 19 52 -5z m828 6 c3 -8 0 -17 -8 -19 -15
-7 -25 1 -25 20 0 17 26 17 33 -1z m-196 -22 c-9 -9 -28 6 -21 18 4 6 10 6 17
-1 6 -6 8 -13 4 -17z m-137 12 c0 -3 -4 -8 -10 -11 -5 -3 -10 -1 -10 4 0 6 5
11 10 11 6 0 10 -2 10 -4z m86 -19 c8 3 17 -2 20 -11 9 -24 -3 -31 -22 -15
-13 11 -18 11 -21 2 -3 -7 -13 -13 -24 -13 -19 0 -19 1 -3 26 11 16 20 22 27
15 5 -5 16 -7 23 -4z m-316 -7 c0 -5 -4 -10 -10 -10 -5 0 -10 5 -10 10 0 6 5
10 10 10 6 0 10 -4 10 -10z m-110 -15 c0 -8 -4 -15 -10 -15 -5 0 -10 7 -10 15
0 8 5 15 10 15 6 0 10 -7 10 -15z m206 -6 c10 -17 -13 -36 -27 -22 -12 12 -4
33 11 33 5 0 12 -5 16 -11z m115 -18 c-8 -6 -19 -4 -26 2 -10 10 -9 13 4 18
21 9 41 -9 22 -20z m228 15 c9 -11 7 -15 -10 -19 -13 -4 -18 -10 -13 -18 4 -8
3 -10 -4 -5 -17 10 -15 56 2 56 7 0 19 -6 25 -14z m41 4 c0 -5 -4 -10 -10 -10
-5 0 -10 5 -10 10 0 6 5 10 10 10 6 0 10 -4 10 -10z m-650 -10 c0 -5 -4 -10
-10 -10 -5 0 -10 5 -10 10 0 6 5 10 10 10 6 0 10 -4 10 -10z m198 -8 c12 -8 7
-42 -7 -42 -17 1 -31 18 -25 33 7 19 13 20 32 9z m-110 -23 c-2 -6 -8 -10 -13
-10 -5 0 -11 4 -13 10 -2 6 4 11 13 11 9 0 15 -5 13 -11z m425 -37 c3 -17 1
-22 -9 -18 -8 3 -14 -1 -14 -8 0 -21 -27 -27 -35 -8 -3 9 -1 18 4 20 6 2 11
11 11 21 0 27 38 21 43 -7z m-153 -1 c0 -5 9 -11 20 -14 22 -6 28 -27 8 -27
-9 0 -8 -4 2 -10 10 -7 11 -10 2 -10 -7 0 -15 6 -18 14 -9 22 -43 26 -62 7
-14 -15 -21 -16 -39 -6 -28 14 -20 25 19 25 18 0 28 5 28 15 0 8 9 15 20 15
11 0 20 -4 20 -9z m-78 -85 c5 -8 13 -7 28 2 25 15 38 16 22 0 -7 -7 -12 -20
-12 -30 0 -38 -40 -18 -70 34 -9 14 -7 16 7 11 10 -4 21 -11 25 -17z m181 -26
c6 -23 -14 -27 -32 -7 -8 10 -7 17 1 25 14 14 24 8 31 -18z m43 3 c-10 -10
-19 5 -10 18 6 11 8 11 12 0 2 -7 1 -15 -2 -18z m-304 -28 c0 -5 -5 -11 -11
-13 -6 -2 -11 4 -11 13 0 9 5 15 11 13 6 -2 11 -8 11 -13z m60 -20 c0 -5 -5
-11 -11 -13 -6 -2 -11 4 -11 13 0 9 5 15 11 13 6 -2 11 -8 11 -13z m38 -15 c0
-5 -4 -10 -10 -10 -5 0 -10 5 -10 10 0 6 5 10 10 10 6 0 10 -4 10 -10z m-294
-58 c8 -5 8 -15 3 -31 -7 -18 -12 -21 -23 -12 -8 7 -12 21 -9 31 6 21 12 24
29 12z m131 -18 c-9 -9 -28 6 -21 18 4 6 10 6 17 -1 6 -6 8 -13 4 -17z m-32
-13 c7 -12 -12 -24 -25 -16 -11 7 -4 25 10 25 5 0 11 -4 15 -9z m171 -26 c3
-8 3 -19 -1 -25 -10 -16 -35 7 -28 26 7 18 22 18 29 -1z m-386 -5 c0 -5 -4
-10 -10 -10 -5 0 -10 5 -10 10 0 6 5 10 10 10 6 0 10 -4 10 -10z m265 0 c3 -5
2 -10 -4 -10 -5 0 -13 5 -16 10 -3 6 -2 10 4 10 5 0 13 -4 16 -10z m3191 -4
c8 -8 14 -20 14 -27 0 -7 -9 -4 -20 9 -29 31 -24 48 6 18z m-3313 -36 c4 -15
-1 -22 -18 -26 -13 -3 -29 -3 -34 1 -19 11 -12 33 12 38 12 2 25 5 28 6 4 0 9
-8 12 -19z m126 6 c9 -10 8 -15 -4 -20 -17 -6 -45 2 -45 14 0 8 16 17 31 19 4
1 12 -5 18 -13z m-267 -18 c21 -25 9 -49 -15 -29 -8 6 -21 9 -29 6 -20 -8 -33
25 -16 37 22 13 40 9 60 -14z m-102 -13 c0 -8 -6 -15 -14 -15 -17 0 -28 14
-19 24 12 12 33 6 33 -9z m310 -1 c0 -17 -22 -14 -28 4 -2 7 3 12 12 12 9 0
16 -7 16 -16z m3417 -15 c2 -20 -2 -29 -10 -26 -17 5 -22 57 -5 57 7 0 14 -13
15 -31z m-3312 11 c3 -5 -1 -10 -10 -10 -9 0 -13 5 -10 10 3 6 8 10 10 10 2 0
7 -4 10 -10z m3235 -5 c0 -8 -4 -15 -10 -15 -5 0 -10 7 -10 15 0 8 5 15 10 15
6 0 10 -7 10 -15z m-3072 -32 c16 -36 15 -43 -7 -43 -22 0 -34 25 -26 51 9 26
18 24 33 -8z m3222 17 c0 -5 -2 -10 -4 -10 -3 0 -8 5 -11 10 -3 6 -1 10 4 10
6 0 11 -4 11 -10z m-3787 -27 c-24 -9 -13 -25 12 -21 14 3 29 0 32 -6 4 -6 9
-1 13 12 4 21 7 21 24 9 18 -13 17 -15 -14 -30 -28 -14 -39 -15 -74 -5 -51 15
-49 13 -41 37 4 12 12 18 21 14 8 -3 14 1 14 8 0 11 2 11 13 0 10 -11 10 -14
0 -18z m47 23 c0 -3 -4 -8 -10 -11 -5 -3 -10 -1 -10 4 0 6 5 11 10 11 6 0 10
-2 10 -4z m260 -16 c0 -5 -7 -10 -15 -10 -8 0 -15 5 -15 10 0 6 7 10 15 10 8
0 15 -4 15 -10z m-417 -29 c-3 -13 2 -20 18 -24 19 -5 20 -8 10 -21 -14 -16
-36 -12 -26 4 3 5 -3 15 -15 22 -26 17 -27 48 -1 41 12 -3 17 -11 14 -22z
m807 20 c0 -5 -8 -11 -17 -15 -10 -3 -25 -9 -33 -12 -8 -3 -4 4 10 15 27 22
40 26 40 12z m3143 -6 c-6 -17 -25 -15 -31 3 -2 7 5 12 17 12 14 0 19 -5 14
-15z m-3398 -3 c-5 -4 -11 -11 -12 -17 -1 -5 -5 -18 -8 -27 -6 -14 -2 -18 19
-18 16 0 26 -6 26 -14 0 -25 -21 -29 -36 -7 -9 12 -20 18 -26 15 -11 -7 -28
13 -28 33 0 7 12 18 28 26 29 16 54 22 37 9z m3295 -4 c0 -7 -4 -18 -8 -25
-11 -17 -36 1 -29 21 7 19 37 22 37 4z m48 -10 c-6 -18 -28 -21 -28 -4 0 9 7
16 16 16 9 0 14 -5 12 -12z m342 -9 c0 -13 -13 -11 -35 5 -18 13 -18 14 8 9
15 -3 27 -9 27 -14z m-450 -4 c0 -8 -4 -15 -10 -15 -5 0 -10 7 -10 15 0 8 5
15 10 15 6 0 10 -7 10 -15z m190 5 c0 -5 -5 -10 -11 -10 -6 0 -8 -8 -4 -19 5
-16 2 -18 -15 -14 -25 7 -26 21 -2 39 21 16 32 17 32 4z m178 -1 c-2 -6 -7
-10 -11 -10 -4 1 -14 1 -22 1 -8 0 -15 5 -15 10 0 6 12 10 26 10 14 0 24 -5
22 -11z m-3835 -31 c34 -16 35 -32 2 -24 -14 4 -25 2 -25 -4 0 -22 -15 -8 -16
15 -2 29 2 30 39 13z m3695 -7 c3 -8 -1 -12 -9 -9 -7 2 -15 10 -17 17 -3 8 1
12 9 9 7 -2 15 -10 17 -17z m82 5 c0 -14 -34 -28 -44 -18 -9 8 14 32 30 32 8
0 14 -6 14 -14z m-3835 -44 c-1 -1 -12 1 -24 6 -27 10 -29 24 -4 33 13 4 20 0
24 -15 3 -11 5 -22 4 -24z m368 34 c3 -8 -1 -17 -10 -20 -20 -8 -27 -1 -20 19
8 19 23 20 30 1z m-533 -6 c0 -5 -5 -10 -11 -10 -5 0 -7 5 -4 10 3 6 8 10 11
10 2 0 4 -4 4 -10z m300 0 c0 -5 -4 -10 -10 -10 -5 0 -10 5 -10 10 0 6 5 10
10 10 6 0 10 -4 10 -10z m-224 -37 c-11 -11 -19 6 -11 24 8 17 8 17 12 0 3
-10 2 -21 -1 -24z m3748 22 c4 -10 -1 -15 -14 -15 -11 0 -20 7 -20 15 0 8 6
15 14 15 8 0 16 -7 20 -15z m90 -11 c4 -9 4 -19 2 -22 -10 -9 -36 8 -36 23 0
20 26 19 34 -1z m96 6 c0 -5 -2 -10 -4 -10 -3 0 -8 5 -11 10 -3 6 -1 10 4 10
6 0 11 -4 11 -10z m-2800 -10 c0 -5 -4 -10 -10 -10 -5 0 -10 5 -10 10 0 6 5
10 10 10 6 0 10 -4 10 -10z m-20 -65 c0 -8 -4 -15 -9 -15 -13 0 -22 16 -14 24
11 11 23 6 23 -9z m-740 -64 c0 -6 -4 -13 -10 -16 -5 -3 -10 1 -10 9 0 9 5 16
10 16 6 0 10 -4 10 -9z m280 -6 c0 -8 -4 -15 -10 -15 -5 0 -10 7 -10 15 0 8 5
15 10 15 6 0 10 -7 10 -15z m-220 -10 c0 -8 -4 -15 -10 -15 -5 0 -10 7 -10 15
0 8 5 15 10 15 6 0 10 -7 10 -15z m684 -18 c8 -13 7 -20 -4 -27 -22 -14 -28
-12 -35 10 -13 39 17 52 39 17z m-459 -61 c4 -39 -14 -52 -46 -35 -21 11 -18
20 14 56 24 27 29 24 32 -21z m-281 28 c18 -7 19 -13 8 -32 -13 -19 -41 -4
-35 19 6 21 6 21 27 13z m691 -4 c3 -5 1 -10 -4 -10 -6 0 -11 5 -11 10 0 6 2
10 4 10 3 0 8 -4 11 -10z m-765 -16 c11 -13 10 -19 -8 -37 -12 -12 -22 -16
-22 -9 0 7 -7 12 -15 12 -14 0 -13 3 2 25 21 29 26 30 43 9z m-90 -14 c0 -5
-4 -10 -10 -10 -5 0 -10 5 -10 10 0 6 5 10 10 10 6 0 10 -4 10 -10z m338 -31
c-2 -6 -8 -10 -13 -10 -5 0 -11 4 -13 10 -2 6 4 11 13 11 9 0 15 -5 13 -11z
m567 -8 c7 -12 -12 -24 -25 -16 -11 7 -4 25 10 25 5 0 11 -4 15 -9z m1012 -13
c-3 -8 -6 -5 -6 6 -1 11 2 17 5 13 3 -3 4 -12 1 -19z m-1979 -16 c5 -17 -27
-27 -41 -13 -9 9 -8 14 3 21 18 11 32 8 38 -8z m357 7 c4 -6 -1 -16 -11 -24
-15 -11 -17 -16 -6 -26 19 -20 14 -31 -10 -23 -32 9 -32 10 -14 49 17 36 30
43 41 24z m-264 -56 c-15 -20 -17 -21 -28 -6 -12 15 -13 15 -13 -5 0 -15 -6
-22 -19 -22 -32 0 -30 24 6 48 18 12 33 27 33 32 0 6 8 2 18 -7 17 -17 17 -20
3 -40z m399 47 c0 -5 -4 -10 -10 -10 -5 0 -10 5 -10 10 0 6 5 10 10 10 6 0 10
-4 10 -10z m418 -41 c-15 -10 -23 14 -13 39 6 14 8 13 16 -7 7 -18 6 -27 -3
-32z m236 30 c-3 -5 -10 -7 -15 -3 -5 3 -7 10 -3 15 3 5 10 7 15 3 5 -3 7 -10
3 -15z m-1214 -15 c0 -8 -4 -12 -10 -9 -5 3 -10 10 -10 16 0 5 5 9 10 9 6 0
10 -7 10 -16z m260 -5 c0 -25 -33 -22 -38 4 -2 12 3 17 17 17 15 0 21 -6 21
-21z m50 7 c0 -8 -7 -16 -15 -20 -8 -3 -15 -4 -15 -2 0 3 -3 11 -6 20 -4 12 0
16 15 16 12 0 21 -6 21 -14z m147 -28 c-16 -10 -21 -2 -13 19 6 15 9 15 16 3
6 -9 5 -17 -3 -22z m600 -23 c1 0 -2 -6 -6 -14 -6 -10 -12 -9 -25 4 -9 9 -16
24 -16 32 0 14 3 13 23 -3 12 -10 23 -19 24 -19z m-547 5 c0 -11 -4 -20 -10
-20 -5 0 -10 9 -10 20 0 11 5 20 10 20 6 0 10 -9 10 -20z m677 3 c3 -7 -4 -16
-15 -22 -16 -8 -18 -7 -16 12 1 12 3 24 3 25 2 8 25 -5 28 -15z m-1254 -9 c9
-9 -4 -35 -14 -28 -5 3 -9 12 -9 20 0 14 12 19 23 8z m134 -25 c17 -17 5 -43
-13 -28 -15 12 -19 39 -6 39 4 0 13 -5 19 -11z m83 -15 c0 -17 -26 -19 -36 -3
-7 12 15 31 28 23 4 -3 8 -12 8 -20z m860 22 c0 -3 -4 -8 -10 -11 -5 -3 -10
-1 -10 4 0 6 5 11 10 11 6 0 10 -2 10 -4z m-1012 -17 c-2 -6 -8 -10 -13 -10
-5 0 -11 4 -13 10 -2 6 4 11 13 11 9 0 15 -5 13 -11z m250 -10 c-2 -6 -8 -10
-13 -10 -5 0 -11 4 -13 10 -2 6 4 11 13 11 9 0 15 -5 13 -11z m912 -7 c-1 -17
-19 -34 -29 -28 -8 5 -8 13 -1 27 10 18 30 18 30 1z m-820 -18 c0 -28 -15 -25
-23 6 -3 13 0 20 9 20 8 0 14 -10 14 -26z m710 5 c0 -5 -4 -9 -10 -9 -5 0 -10
7 -10 16 0 8 5 12 10 9 6 -3 10 -10 10 -16z m-1092 -10 c-2 -6 -7 -10 -12 -9
-15 3 -31 -33 -18 -38 7 -2 12 -7 12 -12 0 -13 -51 -5 -60 9 -4 7 -11 12 -16
11 -5 -1 -10 4 -13 11 -2 8 3 10 18 6 12 -3 24 0 29 7 12 22 67 36 60 15z
m262 1 c0 -5 -4 -10 -10 -10 -5 0 -10 5 -10 10 0 6 5 10 10 10 6 0 10 -4 10
-10z m170 -4 c0 -20 -13 -27 -30 -15 -13 8 -13 10 0 19 21 14 30 12 30 -4z
m1510 10 c0 -2 -8 -10 -17 -17 -16 -13 -17 -12 -4 4 13 16 21 21 21 13z
m-1711 -48 c10 -26 5 -41 -12 -35 -14 4 -21 57 -7 57 6 0 14 -10 19 -22z m141
-3 c0 -8 -7 -15 -15 -15 -8 0 -15 7 -15 15 0 8 7 15 15 15 8 0 15 -7 15 -15z
m731 -5 c15 0 31 5 34 10 3 6 15 10 27 10 15 0 18 -4 13 -17 -4 -10 -8 -25 -9
-32 -2 -8 -11 -20 -22 -25 -10 -6 -22 -15 -25 -20 -4 -5 -14 5 -24 23 -12 25
-21 31 -36 26 -14 -5 -19 -2 -19 13 0 24 11 35 24 22 5 -5 22 -10 37 -10z
m-651 0 c0 -5 -4 -10 -10 -10 -5 0 -10 5 -10 10 0 6 5 10 10 10 6 0 10 -4 10
-10z m-629 -13 c-1 -12 -15 -9 -19 4 -3 6 1 10 8 8 6 -3 11 -8 11 -12z m729
-5 c0 -24 -8 -32 -26 -25 -17 6 -18 30 -1 36 22 9 27 7 27 -11z m1595 -21 c23
-21 61 -49 83 -62 23 -13 42 -30 42 -37 0 -7 -9 -31 -21 -53 -23 -46 -18 -60
12 -40 30 18 35 6 11 -24 l-20 -25 -29 40 c-38 51 -69 75 -137 106 l-56 25 20
22 c11 11 25 36 32 54 7 18 14 33 16 33 3 0 24 -17 47 -39z m-2025 19 c0 -5
-4 -10 -10 -10 -5 0 -10 5 -10 10 0 6 5 10 10 10 6 0 10 -4 10 -10z m-56 -25
c-9 -22 -34 -27 -34 -6 0 23 8 31 25 24 8 -2 11 -11 9 -18z m241 1 c-3 -6 -8
-19 -11 -28 -4 -10 -10 -18 -14 -18 -10 0 -22 48 -15 60 8 12 47 -1 40 -14z
m119 -2 c4 -9 4 -19 2 -22 -10 -9 -36 8 -36 23 0 20 26 19 34 -1z m-195 -35
c-9 -5 -17 -2 -23 8 -5 10 -4 18 5 24 9 5 17 2 23 -8 5 -10 4 -18 -5 -24z
m1411 -9 c0 -6 -55 -40 -65 -40 -3 0 1 10 9 22 9 12 16 34 16 48 l0 25 20 -25
c11 -14 20 -27 20 -30z m-1533 7 c13 -39 12 -47 -8 -57 -13 -7 -19 -7 -19 0 0
5 5 10 11 10 6 0 5 6 -3 15 -34 38 -36 43 -26 53 15 15 36 4 45 -21z m1803 -7
c-24 -15 -31 -11 -18 10 9 13 16 16 23 9 7 -7 5 -13 -5 -19z m-1350 -1 c0 -12
-37 -12 -45 0 -3 5 3 11 12 13 21 5 33 0 33 -13z m-100 -5 c0 -6 -11 -16 -24
-22 -19 -9 -25 -8 -30 4 -3 8 -12 14 -21 14 -8 0 -15 4 -15 9 0 5 20 8 45 7
25 0 45 -6 45 -12z m580 -56 c0 -13 -21 -20 -45 -14 -23 6 -23 7 -8 37 l16 32
18 -24 c10 -13 19 -27 19 -31z m40 42 c0 -5 -4 -10 -10 -10 -5 0 -10 5 -10 10
0 6 5 10 10 10 6 0 10 -4 10 -10z m52 -10 c-3 -11 0 -11 12 0 17 14 21 3 7
-19 -5 -7 -13 -11 -19 -7 -6 3 -12 0 -14 -6 -3 -7 -5 2 -5 20 0 19 5 31 11 29
6 -3 10 -10 8 -17z m538 -31 c0 -3 -29 -29 -65 -57 -36 -29 -65 -51 -65 -49 0
46 104 152 122 124 4 -6 8 -15 8 -18z m-1637 0 c-6 -6 -17 -8 -24 -3 -9 5 -8
9 7 14 23 9 31 3 17 -11z m3172 -19 c42 -66 85 -209 85 -280 0 -83 -36 -145
-149 -263 -111 -115 -151 -139 -227 -135 l-57 3 -29 -72 -30 -72 -55 82 c-31
45 -72 99 -92 120 -36 39 -154 137 -164 137 -3 0 -78 -73 -166 -162 -88 -90
-174 -171 -193 -182 -29 -16 -27 -13 12 20 71 62 140 137 134 146 -3 5 -2 7 3
6 12 -4 48 27 116 99 62 67 74 99 33 89 -19 -5 -26 -1 -31 14 -7 21 -17 25
-29 13 -4 -5 -13 -8 -19 -8 -6 0 -15 -18 -18 -40 -8 -45 -28 -100 -33 -94 -3
2 2 29 10 59 8 30 14 77 14 106 l0 51 76 6 c51 4 92 14 125 30 l48 23 13 -30
c15 -38 144 -169 161 -163 7 2 13 16 15 31 3 27 5 25 49 -33 25 -34 49 -61 54
-61 5 0 9 25 9 56 0 54 21 117 43 131 7 4 8 0 2 -13 -4 -10 -13 -36 -19 -57
-11 -39 -7 -45 56 -95 21 -17 69 2 122 48 64 57 78 100 52 172 l-13 37 36 3
c36 3 36 3 34 48 -3 55 -27 121 -53 145 -11 10 -20 21 -20 25 0 8 60 100 66
100 2 0 15 -18 29 -40z m-2801 -2 c14 -54 5 -59 -38 -25 -32 26 -28 47 8 47
16 0 26 -7 30 -22z m-184 2 c0 -5 -4 -10 -10 -10 -5 0 -10 5 -10 10 0 6 5 10
10 10 6 0 10 -4 10 -10z m330 -5 c7 -8 9 -15 6 -15 -4 0 -14 7 -22 15 -9 8
-11 15 -6 15 5 0 15 -7 22 -15z m-573 -25 c1 -11 -2 -20 -8 -20 -5 0 -9 9 -9
20 0 11 4 20 8 20 4 0 8 -9 9 -20z m1143 10 c0 -5 -4 -10 -10 -10 -5 0 -10 5
-10 10 0 6 5 10 10 10 6 0 10 -4 10 -10z m992 -29 c42 -27 98 -87 98 -106 0
-5 -11 7 -25 26 -32 43 -59 65 -110 89 -22 11 -33 20 -24 20 8 0 36 -13 61
-29z m-2163 3 c5 -5 -26 -34 -38 -34 -15 0 -22 16 -15 34 6 15 37 14 53 0z
m-99 -29 c0 -26 -14 -33 -25 -15 -9 14 1 40 15 40 5 0 10 -11 10 -25z m700 15
c0 -5 -4 -10 -10 -10 -5 0 -10 5 -10 10 0 6 5 10 10 10 6 0 10 -4 10 -10z
m1466 -26 c71 -20 141 -68 181 -124 18 -25 39 -53 48 -62 21 -25 34 -91 35
-176 0 -127 -34 -169 -179 -222 -115 -42 -161 -51 -271 -52 -154 -1 -154 -1
-201 100 -23 48 -49 116 -60 151 -10 36 -22 67 -27 70 -5 3 -12 15 -16 26 -5
14 -9 16 -15 7 -5 -8 -17 -11 -32 -7 -17 4 -32 -1 -51 -20 -21 -19 -28 -22
-28 -10 0 20 -48 10 -70 -15 -8 -9 -28 -23 -45 -31 -16 -8 -31 -21 -32 -29 -1
-8 -5 -33 -9 -55 l-7 -40 -13 54 c-14 61 -2 128 38 204 20 37 23 39 26 19 2
-13 -1 -37 -7 -54 -14 -40 -14 -48 2 -48 17 0 108 94 167 173 24 32 51 62 61
67 16 9 17 7 8 -22 -13 -47 -12 -56 11 -68 17 -9 23 -5 45 37 14 27 23 37 20
23 -4 -14 -11 -43 -16 -65 -24 -95 30 -221 101 -238 48 -11 85 5 110 45 23 39
25 48 7 48 -19 0 -44 30 -52 63 -9 34 10 60 38 51 17 -6 19 -3 13 22 -11 41
-53 93 -81 100 -14 3 -41 4 -60 2 -19 -2 -35 -3 -35 -1 0 6 127 67 165 79 56
18 167 17 231 -2z m-1621 -4 c3 -5 -1 -10 -10 -10 -9 0 -13 5 -10 10 3 6 8 10
10 10 2 0 7 -4 10 -10z m186 -5 c1 -17 -18 -17 -25 0 -4 11 -1 15 10 13 8 -2
15 -7 15 -13z m-205 -44 c-4 -5 0 -11 6 -14 7 -2 1 -4 -14 -4 -29 -1 -38 11
-15 20 20 9 29 8 23 -2z m2034 0 c0 -5 -20 -21 -45 -35 -48 -28 -58 -46 -26
-46 56 0 66 -31 25 -79 -32 -39 -44 -39 -44 -2 0 16 -4 40 -9 53 -25 70 -24
75 24 88 25 7 48 17 51 21 7 12 24 11 24 0z m-177 -63 c6 -22 5 -22 -8 -4 -17
22 -20 40 -6 32 5 -3 11 -16 14 -28z m-1853 -13 c0 -8 -7 -15 -15 -15 -8 0
-15 7 -15 15 0 8 7 15 15 15 8 0 15 -7 15 -15z m680 -20 c0 -5 -5 -3 -10 5 -5
8 -10 20 -10 25 0 6 5 3 10 -5 5 -8 10 -19 10 -25z m-101 0 c29 -15 111 -101
111 -116 0 -5 6 -9 14 -9 8 0 16 -5 18 -12 6 -18 28 1 28 25 1 36 15 2 44
-104 24 -88 34 -149 19 -109 -7 17 -44 52 -50 47 -2 -2 2 -60 9 -127 13 -139
25 -162 76 -154 29 5 51 -10 37 -24 -3 -3 -10 0 -15 8 -7 11 -12 12 -21 3 -9
-9 -19 -8 -44 4 -31 15 -34 14 -74 -13 -29 -19 -59 -29 -96 -32 -86 -7 -103 1
-131 64 -68 153 -90 367 -47 450 31 59 44 66 107 62 59 -3 63 2 16 22 -41 17
-96 5 -116 -26 -9 -13 -19 -22 -22 -20 -11 12 30 56 61 65 44 13 45 13 76 -4z
m-559 -71 c0 -8 -7 -14 -15 -14 -15 0 -21 21 -9 33 10 9 24 -2 24 -19z m10
-42 c0 -13 -12 -22 -22 -16 -10 6 -1 24 13 24 5 0 9 -4 9 -8z m30 -83 c0 -11
-4 -17 -10 -14 -5 3 -10 13 -10 21 0 8 5 14 10 14 6 0 10 -9 10 -21z m1293 -3
c3 -8 -2 -16 -14 -19 -10 -3 -19 -4 -19 -2 0 2 -3 10 -6 19 -4 11 0 16 14 16
11 0 22 -6 25 -14z m-363 -25 c0 -6 -4 -13 -10 -16 -5 -3 -10 1 -10 9 0 9 5
16 10 16 6 0 10 -4 10 -9z m-579 -152 c44 -149 91 -243 129 -259 29 -12 111
-9 157 6 15 5 15 3 -3 -13 -12 -10 -25 -27 -28 -38 -9 -32 34 -106 82 -142 24
-18 39 -33 33 -33 -6 0 -11 -8 -12 -17 -1 -12 -4 -10 -9 7 -5 17 -8 19 -9 7
-1 -13 -7 -16 -26 -11 -15 4 -25 2 -25 -5 0 -6 -5 -11 -10 -11 -6 0 -4 13 5
30 15 29 15 31 -10 40 -14 5 -25 12 -25 15 0 4 5 3 10 0 17 -10 -1 48 -18 61
-10 7 -13 23 -10 47 l4 36 -53 -2 c-29 -1 -53 1 -53 6 0 4 -11 7 -25 7 -14 0
-25 -4 -25 -10 0 -5 6 -8 13 -6 6 1 9 1 5 -1 -5 -3 -8 -12 -8 -21 -1 -12 -5
-10 -16 8 l-15 25 6 -30 c4 -16 9 -43 11 -59 4 -32 11 -43 20 -33 4 4 2 13 -4
20 -17 20 7 51 28 36 13 -9 12 -10 -2 -5 -13 4 -18 0 -18 -14 0 -11 7 -20 15
-20 13 0 13 -3 -2 -26 -16 -25 -16 -26 16 -51 18 -15 30 -31 27 -39 -3 -8 -1
-14 3 -14 5 0 11 -6 14 -13 4 -10 -2 -13 -20 -9 -16 3 -24 1 -20 -5 10 -15 56
-22 61 -9 3 7 5 6 5 -2 1 -7 -6 -15 -14 -18 -13 -5 -12 -10 6 -25 12 -11 17
-19 11 -19 -19 0 -14 -20 6 -21 10 0 12 -3 5 -6 -7 -2 -13 -9 -13 -14 0 -5 16
-1 35 9 26 13 33 22 29 37 -4 16 -3 17 5 5 5 -9 6 -44 2 -83 -4 -37 -5 -70 -2
-72 13 -13 19 0 25 53 6 53 25 108 26 73 0 -18 30 -40 54 -41 13 0 17 -5 13
-20 -3 -13 3 -26 19 -39 24 -19 33 -61 14 -61 -5 0 -10 -5 -10 -11 0 -6 7 -8
15 -5 8 3 22 9 31 12 10 5 17 0 21 -15 3 -12 13 -21 25 -21 17 0 19 5 14 38
-3 20 -5 38 -6 40 0 2 -4 1 -8 -2 -4 -2 -14 -1 -22 5 -13 7 -13 9 0 9 10 1 5
9 -14 24 -37 31 -43 81 -13 114 11 12 26 22 33 22 7 0 -1 -13 -17 -30 l-30
-30 20 -29 c33 -46 105 -105 172 -141 75 -40 223 -64 300 -50 206 39 414 260
344 366 l-17 27 -112 -5 c-116 -6 -96 7 26 16 57 4 71 2 93 -16 39 -30 45 -56
30 -124 -7 -32 -13 -55 -14 -49 -2 16 -32 -34 -34 -55 -1 -12 -7 -18 -14 -16
-7 3 -10 -1 -7 -8 3 -8 -7 -19 -26 -27 -23 -11 -32 -22 -36 -49 -6 -34 -8 -36
-41 -32 -28 4 -35 1 -40 -17 -3 -11 -9 -21 -14 -21 -5 0 -9 -12 -10 -27 0 -24
-2 -26 -12 -11 -10 15 -12 15 -24 0 -12 -16 -14 -16 -27 2 -24 31 -105 8 -113
-32 -4 -15 14 -16 19 0 3 7 11 9 24 4 15 -7 16 -9 4 -14 -8 -3 -28 -19 -43
-36 -23 -25 -25 -32 -13 -34 16 -3 23 -23 9 -21 -23 4 -36 -2 -27 -11 12 -12
87 -22 79 -11 -3 5 2 12 11 15 21 8 39 8 31 -1 -10 -9 24 -32 48 -33 11 0 33
7 49 15 15 8 35 15 42 15 8 0 14 5 14 10 0 6 10 10 23 10 25 0 87 35 87 49 0
5 -6 12 -12 14 -13 5 25 11 49 8 7 -1 17 8 23 19 6 11 21 20 33 20 18 0 19 2
7 10 -12 8 -11 10 6 10 29 0 44 19 44 58 0 20 4 31 10 27 6 -3 8 -17 6 -30
l-4 -23 45 15 c27 9 48 23 50 34 3 10 11 15 18 13 26 -10 24 15 -5 72 -16 33
-30 61 -30 63 0 10 41 -50 50 -73 5 -14 15 -26 21 -26 16 0 3 49 -23 84 -12
16 -21 37 -21 45 0 18 -48 110 -81 156 -12 17 -28 43 -36 58 -7 15 -29 45 -47
67 -41 48 -44 66 -3 22 78 -86 230 -366 230 -425 0 -30 -8 -39 -92 -102 -91
-69 -121 -88 -233 -146 -170 -89 -264 -102 -415 -54 -106 33 -261 103 -363
164 l-77 46 6 59 c6 52 5 58 -9 53 -11 -4 -14 -2 -11 7 9 23 -14 28 -25 7 -14
-24 -14 -81 -2 -81 5 0 12 12 14 28 3 18 4 14 6 -16 l1 -43 -27 19 c-16 11
-47 37 -71 58 -43 39 -44 39 -28 69 9 17 16 35 16 42 0 22 -30 2 -36 -24 l-6
-24 -25 23 c-14 13 -45 63 -69 113 -37 75 -41 91 -29 98 18 10 10 28 -9 21
-12 -4 -38 109 -61 263 -4 23 -22 82 -41 130 -27 69 -33 96 -28 126 3 21 8 37
10 34 2 -2 18 -50 35 -108z m1777 43 c66 -58 158 -172 191 -239 l20 -41 -31
-59 c-30 -56 -127 -205 -187 -288 -16 -22 -60 -70 -98 -108 l-69 -67 -48 107
c-53 119 -101 200 -184 311 -45 61 -52 76 -41 86 130 116 238 220 294 284 40
46 75 77 81 74 6 -4 39 -31 72 -60z m-318 -62 c-25 -22 -49 -40 -54 -40 -11 0
-11 0 44 44 60 48 66 45 10 -4z m-160 -85 c-46 -18 -64 -17 -25 0 17 8 37 14
45 14 8 0 -1 -7 -20 -14z m-70 -25 c-8 -5 -26 -9 -40 -9 -23 1 -23 2 5 9 43
11 52 11 35 0z m1074 -22 c25 -36 19 -71 -31 -183 -49 -107 -73 -139 -48 -62
21 63 56 247 50 257 -13 21 15 9 29 -12z m-1157 6 c-3 -3 -12 -4 -19 -1 -8 3
-5 6 6 6 11 1 17 -2 13 -5z m-677 -119 c-13 -14 -28 -25 -35 -25 -19 0 -75
-58 -75 -79 0 -12 5 -21 11 -21 5 0 7 -5 4 -11 -4 -5 1 -19 11 -30 9 -10 13
-19 7 -19 -16 0 -43 34 -52 66 -5 16 -12 37 -16 46 -7 18 20 35 68 45 11 2 35
17 55 33 42 34 56 31 22 -5z m827 -17 c-3 -7 -5 -2 -5 12 0 14 2 19 5 13 2 -7
2 -19 0 -25z m-1085 -58 c-2 -22 -8 -37 -13 -34 -11 7 -11 17 1 48 13 36 16
33 12 -14z m2 -94 c8 -14 8 -20 -1 -23 -7 -2 -9 -11 -6 -19 3 -8 0 -14 -7 -14
-6 0 -8 5 -5 10 3 6 -1 10 -9 10 -20 0 -31 19 -17 33 8 8 11 6 11 -6 0 -19 15
-23 26 -5 4 6 -2 18 -12 26 -10 8 -13 12 -5 10 8 -2 19 -12 25 -22z m794 -53
c-10 -2 -28 -2 -40 0 -13 2 -5 4 17 4 22 1 32 -1 23 -4z m-273 -49 c-222 -46
-232 -48 -222 -38 10 10 358 82 397 82 19 0 -59 -20 -175 -44z m415 16 c0 -11
0 -23 0 -27 2 -16 -255 -82 -415 -108 -110 -18 -182 -19 -215 -2 -40 20 -30
38 30 54 149 38 486 99 568 102 26 1 32 -3 32 -19z m-903 -82 c-3 -8 -6 -5 -6
6 -1 11 2 17 5 13 3 -3 4 -12 1 -19z m1239 -143 c7 -19 14 -38 14 -42 0 -12
-27 30 -34 55 -11 35 3 26 20 -13z m-16 -61 c0 -35 -19 -45 -28 -13 -3 11 -2
11 7 -1 8 -12 11 -8 11 18 0 17 2 32 5 32 3 0 5 -16 5 -36z m-364 -70 c-3 -9
-6 -21 -6 -27 0 -8 -3 -8 -11 0 -13 13 -5 43 12 43 6 0 8 -7 5 -16z m34 12 c0
-3 -4 -8 -10 -11 -5 -3 -10 -1 -10 4 0 6 5 11 10 11 6 0 10 -2 10 -4z m993
-191 c52 -54 64 -71 51 -74 -35 -7 -94 -52 -133 -101 -49 -61 -93 -100 -116
-100 -9 0 -55 39 -102 87 l-86 87 60 16 c80 22 109 45 168 134 l50 75 20 -27
c11 -15 50 -58 88 -97z m387 -633 c0 -13 -12 -22 -22 -16 -10 6 -1 24 13 24 5
0 9 -4 9 -8z m-570 -112 c0 -5 -12 -10 -26 -10 -14 0 -23 4 -19 10 3 6 15 10
26 10 10 0 19 -4 19 -10z m-150 -55 c-3 -5 -11 -9 -17 -9 -7 1 -13 -4 -13 -12
0 -8 -4 -14 -10 -14 -11 0 -13 11 -4 35 4 9 15 15 28 13 11 -2 19 -7 16 -13z
m-60 -5 c0 -5 -2 -10 -4 -10 -3 0 -8 5 -11 10 -3 6 -1 10 4 10 6 0 11 -4 11
-10z"/>
<path d="M2815 2170 c-9 -14 -15 -90 -7 -88 15 3 83 -15 88 -23 3 -5 13 -9 22
-8 13 0 12 4 -7 17 -24 16 -42 23 -73 25 -21 1 -20 0 -12 21 3 9 14 16 23 16
13 1 13 3 -4 16 -11 8 -19 20 -17 25 3 12 -5 12 -13 -1z"/>
<path d="M2740 2140 c0 -5 5 -10 10 -10 6 0 10 5 10 10 0 6 -4 10 -10 10 -5 0
-10 -4 -10 -10z"/>
<path d="M2844 2055 c8 -8 18 -15 22 -15 3 0 1 7 -6 15 -7 8 -17 15 -22 15 -5
0 -3 -7 6 -15z"/>
<path d="M2940 1982 c0 -4 18 -29 39 -55 22 -26 50 -65 63 -85 28 -45 38 -21
13 28 -30 58 -115 141 -115 112z"/>
<path d="M3030 1940 c0 -6 7 -22 16 -35 14 -21 33 -26 61 -16 1 1 -3 15 -8 31
-14 38 -33 40 -25 3 l6 -28 -15 28 c-16 27 -35 36 -35 17z"/>
<path d="M1203 2254 c-41 -64 -21 -204 39 -264 37 -38 62 -38 99 -1 34 35 39
71 9 71 -25 0 -52 49 -39 72 5 10 17 14 29 11 25 -7 25 -3 -1 52 -39 82 -102
110 -136 59z m97 -254 c0 -18 -3 -19 -20 -10 -11 6 -20 15 -20 20 0 6 9 10 20
10 13 0 20 -7 20 -20z"/>
<path d="M1191 1464 c0 -11 3 -14 6 -6 3 7 2 16 -1 19 -3 4 -6 -2 -5 -13z"/>
<path d="M1370 1284 c-13 -34 -13 -81 1 -89 15 -10 18 -5 25 58 7 61 -8 80
-26 31z"/>
<path d="M1605 1160 c10 -11 20 -18 23 -15 7 6 -18 35 -31 35 -5 0 -2 -9 8
-20z"/>
<path d="M1515 1161 c-6 -5 -19 -11 -29 -13 -18 -3 -18 -5 6 -20 23 -15 27
-15 32 -2 3 8 2 12 -4 9 -14 -9 -12 9 2 23 14 14 7 17 -7 3z"/>
<path d="M1681 1074 l-24 -24 34 -30 c47 -43 76 -53 100 -37 19 14 19 14 0 31
-12 11 -21 14 -26 7 -11 -19 -27 -12 -20 9 6 18 -21 71 -35 69 -3 -1 -16 -12
-29 -25z m109 -74 c0 -5 -7 -10 -15 -10 -8 0 -15 5 -15 10 0 6 7 10 15 10 8 0
15 -4 15 -10z"/>
<path d="M1823 975 c0 -8 7 -15 15 -15 8 0 20 -7 27 -17 16 -22 38 -8 25 16
-5 10 -6 21 -3 25 3 3 -9 6 -29 6 -24 0 -35 -5 -35 -15z"/>
<path d="M2910 1722 c1 -4 14 -23 30 -42 22 -24 30 -29 30 -17 0 9 -4 17 -9
17 -5 0 -12 9 -16 19 -5 18 -35 38 -35 23z"/>
<path d="M2882 1689 c2 -7 10 -15 17 -17 8 -3 12 1 9 9 -2 7 -10 15 -17 17 -8
3 -12 -1 -9 -9z"/>
<path d="M2910 1650 c0 -5 5 -10 11 -10 5 0 7 5 4 10 -3 6 -8 10 -11 10 -2 0
-4 -4 -4 -10z"/>
<path d="M2750 1391 c0 -11 5 -23 10 -26 6 -4 10 5 10 19 0 14 -4 26 -10 26
-5 0 -10 -9 -10 -19z"/>
<path d="M2720 1324 c0 -8 5 -12 10 -9 6 4 8 11 5 16 -9 14 -15 11 -15 -7z"/>
<path d="M4170 1804 c0 -8 5 -12 10 -9 6 4 8 11 5 16 -9 14 -15 11 -15 -7z"/>
<path d="M4125 1780 c-3 -5 -1 -10 4 -10 6 0 11 5 11 10 0 6 -2 10 -4 10 -3 0
-8 -4 -11 -10z"/>
<path d="M4270 1786 c0 -2 7 -9 15 -16 13 -11 14 -10 9 4 -5 14 -24 23 -24 12z"/>
<path d="M4340 1770 c0 -5 5 -10 11 -10 5 0 7 5 4 10 -3 6 -8 10 -11 10 -2 0
-4 -4 -4 -10z"/>
<path d="M4371 1763 c-1 -12 -4 -30 -7 -40 -5 -15 -4 -16 6 -3 9 12 10 9 6
-15 -5 -25 -4 -27 5 -12 6 10 8 25 5 34 -4 8 -1 23 6 31 8 10 9 13 1 9 -6 -4
-14 -1 -16 5 -3 7 -6 3 -6 -9z"/>
<path d="M4300 1743 c1 -18 18 -35 24 -24 4 6 2 11 -4 11 -6 0 -8 5 -5 10 3 6
1 10 -4 10 -6 0 -11 -3 -11 -7z"/>
<path d="M4110 1733 c0 -4 5 -15 10 -23 8 -13 10 -13 10 2 0 9 -4 20 -10 23
-5 3 -10 3 -10 -2z"/>
<path d="M4202 1713 c-7 -2 -17 -14 -24 -26 -10 -19 -9 -20 4 -10 8 7 19 9 23
5 5 -4 5 -1 1 6 -5 8 1 16 16 21 13 6 16 10 8 10 -8 -1 -21 -3 -28 -6z"/>
<path d="M4311 1688 c-1 -9 -9 -21 -18 -27 -14 -7 -12 -9 10 -8 29 2 30 3 17
32 -7 16 -9 17 -9 3z"/>
<path d="M4415 1690 c-3 -5 1 -10 9 -10 9 0 16 5 16 10 0 6 -4 10 -9 10 -6 0
-13 -4 -16 -10z"/>
<path d="M4480 1690 c0 -5 5 -10 11 -10 5 0 7 5 4 10 -3 6 -8 10 -11 10 -2 0
-4 -4 -4 -10z"/>
<path d="M4020 1683 c0 -13 17 -26 38 -29 6 -1 12 4 12 11 0 7 -8 12 -17 11
-10 -2 -21 2 -25 8 -6 8 -8 8 -8 -1z"/>
<path d="M4131 1681 c-7 -5 -9 -11 -5 -14 5 -3 15 1 22 9 14 16 5 18 -17 5z"/>
<path d="M4187 1650 c-3 -11 -1 -20 4 -20 5 0 9 9 9 20 0 11 -2 20 -4 20 -2 0
-6 -9 -9 -20z"/>
<path d="M4496 1655 c-3 -8 -1 -15 4 -15 6 0 10 7 10 15 0 8 -2 15 -4 15 -2 0
-6 -7 -10 -15z"/>
<path d="M4006 1647 c3 -10 9 -15 12 -12 3 3 0 11 -7 18 -10 9 -11 8 -5 -6z"/>
<path d="M4442 1639 c-16 -25 -4 -43 18 -29 12 8 12 10 1 10 -11 0 -10 5 4 20
14 15 15 20 4 20 -8 0 -20 -10 -27 -21z"/>
<path d="M4360 1642 c0 -7 -4 -11 -9 -7 -6 3 -9 -4 -8 -15 1 -21 21 -27 32
-10 3 5 1 18 -4 27 -6 11 -11 13 -11 5z"/>
<path d="M4070 1630 c0 -5 5 -10 10 -10 6 0 10 5 10 10 0 6 -4 10 -10 10 -5 0
-10 -4 -10 -10z"/>
<path d="M4150 1630 c-13 -8 -12 -10 3 -10 9 0 17 5 17 10 0 12 -1 12 -20 0z"/>
<path d="M4210 1629 c0 -5 5 -7 10 -4 6 3 10 8 10 11 0 2 -4 4 -10 4 -5 0 -10
-5 -10 -11z"/>
<path d="M4472 1623 c2 -12 -8 -23 -29 -33 -17 -8 -34 -22 -36 -30 -4 -16 15
-40 32 -40 17 0 0 -30 -18 -31 -10 0 -12 -2 -3 -6 7 -3 19 1 27 7 11 9 15 10
15 1 0 -7 5 -9 12 -5 6 4 17 -1 23 -10 10 -14 13 -1 14 69 1 57 -2 84 -9 80
-5 -3 -10 -1 -10 4 0 6 -5 11 -10 11 -6 0 -10 -8 -8 -17z m12 -109 c3 -8 2
-12 -4 -9 -6 3 -10 10 -10 16 0 14 7 11 14 -7z"/>
<path d="M4017 1614 c-4 -4 1 -13 11 -20 16 -12 16 -14 -2 -27 -17 -12 -13
-13 34 -10 60 3 81 13 29 13 -26 0 -38 6 -50 25 -8 14 -18 23 -22 19z"/>
<path d="M4125 1590 c-3 -5 -1 -10 4 -10 6 0 11 5 11 10 0 6 -2 10 -4 10 -3 0
-8 -4 -11 -10z"/>
<path d="M4128 1543 c6 -2 10 -9 6 -14 -3 -5 1 -9 8 -10 7 0 4 -4 -7 -9 -17
-7 -17 -9 -2 -9 21 -1 23 -19 2 -27 -8 -4 -12 -10 -9 -15 3 -5 -2 -17 -12 -26
-15 -16 -15 -17 2 -24 31 -12 40 -9 20 6 -18 13 -18 14 2 12 18 -1 31 -19 36
-52 1 -5 -5 -13 -14 -17 -11 -6 -10 -7 5 -5 21 2 36 47 16 47 -6 0 -11 11 -11
25 0 15 6 25 14 25 7 0 16 9 19 20 3 11 1 20 -5 20 -5 0 -6 9 -3 20 4 12 2 20
-5 20 -6 0 -9 -4 -6 -9 3 -5 -1 -12 -10 -15 -24 -9 -31 -7 -14 4 10 6 11 10 3
10 -7 0 -13 7 -13 15 0 8 -8 15 -17 14 -11 0 -13 -3 -5 -6z"/>
<path d="M3965 1520 c-3 -6 1 -7 9 -4 18 7 21 14 7 14 -6 0 -13 -4 -16 -10z"/>
<path d="M4080 1500 c-9 -6 -10 -10 -3 -10 6 0 15 5 18 10 8 12 4 12 -15 0z"/>
<path d="M4230 1475 c-7 -9 -10 -18 -6 -22 3 -3 6 -1 6 5 0 16 27 15 33 0 4
-8 6 -9 6 -2 1 6 -5 17 -13 23 -10 9 -16 8 -26 -4z"/>
<path d="M4062 1445 c0 -16 2 -22 5 -12 2 9 2 23 0 30 -3 6 -5 -1 -5 -18z"/>
<path d="M4397 1443 c-4 -3 -7 -13 -7 -22 1 -13 3 -13 11 2 11 19 8 33 -4 20z"/>
<path d="M4462 1430 c-24 -22 -29 -36 -10 -24 8 5 9 2 4 -12 -5 -10 -10 -29
-11 -42 -3 -18 0 -22 12 -18 11 4 13 2 9 -9 -3 -8 -1 -15 3 -15 5 0 14 -13 20
-30 5 -16 12 -30 15 -30 4 0 6 45 6 100 0 108 -6 119 -48 80z"/>
<path d="M4205 1430 c-3 -6 1 -7 9 -4 18 7 21 14 7 14 -6 0 -13 -4 -16 -10z"/>
<path d="M4280 1436 c0 -2 7 -6 15 -10 8 -3 15 -1 15 4 0 6 -7 10 -15 10 -8 0
-15 -2 -15 -4z"/>
<path d="M4371 1404 c0 -11 3 -14 6 -6 3 7 2 16 -1 19 -3 4 -6 -2 -5 -13z"/>
<path d="M4013 1375 c-19 -21 -16 -27 7 -13 11 7 20 16 20 20 0 12 -14 9 -27
-7z"/>
<path d="M4095 1370 c3 -5 8 -10 11 -10 2 0 4 5 4 10 0 6 -5 10 -11 10 -5 0
-7 -4 -4 -10z"/>
<path d="M4340 1371 c0 -6 -6 -8 -14 -5 -8 3 -17 1 -21 -5 -3 -6 -1 -11 5 -11
6 0 9 -4 6 -9 -4 -5 3 -7 13 -4 22 6 35 29 21 38 -6 4 -10 2 -10 -4z"/>
<path d="M4046 1338 c10 -33 14 -35 30 -14 20 28 18 36 -12 36 -22 0 -24 -3
-18 -22z"/>
<path d="M4096 1334 c-9 -8 -16 -23 -15 -32 0 -11 2 -12 6 -4 2 6 9 12 14 12
6 0 8 -4 4 -9 -3 -5 0 -13 6 -17 9 -5 10 1 5 20 -5 20 -3 26 9 26 9 0 14 -4
11 -9 -3 -5 1 -12 10 -15 8 -3 13 -10 9 -15 -3 -5 0 -13 6 -17 9 -5 10 1 5 22
-14 54 -40 68 -70 38z"/>
<path d="M4270 1346 c0 -2 7 -9 15 -16 13 -11 14 -10 9 4 -5 14 -24 23 -24 12z"/>
<path d="M4325 1320 c-3 -6 1 -7 9 -4 18 7 21 14 7 14 -6 0 -13 -4 -16 -10z"/>
<path d="M4409 1313 c-13 -16 -12 -17 4 -4 9 7 17 15 17 17 0 8 -8 3 -21 -13z"/>
<path d="M3975 1311 c-3 -5 -1 -12 4 -15 5 -3 11 1 15 9 6 16 -9 21 -19 6z"/>
<path d="M4012 1301 c-11 -7 -11 -9 1 -14 9 -3 18 1 21 9 6 16 -2 18 -22 5z"/>
<path d="M4184 1289 c-3 -6 -1 -16 6 -22 10 -9 11 -9 5 2 -4 8 -2 17 6 22 9 6
10 9 2 9 -6 0 -15 -5 -19 -11z"/>
<path d="M3921 1281 c-9 -6 -7 -10 9 -14 14 -4 19 -10 14 -18 -4 -8 -3 -10 5
-5 9 6 9 12 -1 24 -7 10 -13 18 -13 19 0 1 -6 -2 -14 -6z"/>
<path d="M3962 1274 c10 -10 20 -16 22 -13 3 3 -5 11 -17 18 -21 13 -21 12 -5
-5z"/>
<path d="M4351 1251 c-16 -12 -22 -24 -18 -35 5 -12 1 -16 -15 -16 -21 0 -22
-1 -5 -17 17 -17 19 -17 28 0 6 9 17 17 24 17 8 0 15 5 15 10 0 6 10 14 23 19
18 7 24 4 35 -18 7 -14 10 -18 7 -8 -3 10 -5 25 -5 32 0 9 -12 12 -40 9 -45
-4 -51 2 -17 16 12 5 15 9 7 9 -8 0 -26 -8 -39 -18z"/>
<path d="M3896 1245 c-3 -8 -13 -15 -23 -15 -13 0 -14 -3 -5 -12 16 -16 15
-48 -1 -48 -17 0 -57 -38 -56 -53 0 -9 2 -9 6 1 2 6 9 9 15 6 5 -3 12 3 15 15
3 12 10 21 16 21 13 0 57 48 57 62 0 4 -4 8 -10 8 -5 0 -7 7 -4 15 4 8 4 15 1
15 -3 0 -7 -7 -11 -15z"/>
<path d="M4185 1240 c-3 -6 1 -7 9 -4 18 7 21 14 7 14 -6 0 -13 -4 -16 -10z"/>
<path d="M3929 1198 c-28 -39 -30 -42 -74 -93 -19 -22 -35 -47 -36 -55 0 -8
-2 -25 -5 -38 -2 -14 0 -21 6 -17 5 3 10 17 10 31 0 13 5 24 11 24 5 0 7 -5 3
-12 -4 -7 -3 -8 5 -4 6 4 9 12 6 17 -3 5 18 39 48 76 66 84 70 90 58 97 -5 4
-20 -8 -32 -26z"/>
<path d="M4463 1205 c0 -8 4 -15 9 -15 4 0 8 4 8 9 0 6 -4 12 -8 15 -5 3 -9
-1 -9 -9z"/>
<path d="M4212 1180 c0 -14 2 -19 5 -12 2 6 2 18 0 25 -3 6 -5 1 -5 -13z"/>
<path d="M3986 1173 c-6 -14 -5 -15 5 -6 7 7 10 15 7 18 -3 3 -9 -2 -12 -12z"/>
<path d="M4261 1166 c-15 -18 0 -29 26 -19 16 6 16 5 4 -10 -14 -18 -5 -22 18
-8 10 7 11 13 2 30 -13 24 -33 27 -50 7z"/>
<path d="M4480 1168 c0 -9 6 -18 12 -20 14 -5 -25 -136 -49 -166 -13 -15 -13
-14 -4 5 13 27 14 36 2 28 -6 -3 -14 2 -19 11 -9 15 -13 14 -38 -9 -32 -30
-59 -34 -71 -12 -8 13 -11 13 -32 -1 -12 -9 -31 -30 -42 -48 -10 -17 -19 -26
-19 -20 0 6 11 28 25 49 15 20 24 40 21 43 -12 11 -55 -30 -72 -67 -12 -27
-26 -42 -43 -46 -23 -6 -24 -8 -8 -16 23 -13 22 -29 -2 -29 -11 0 -22 8 -24
18 -3 11 -5 8 -6 -9 -1 -24 -23 -45 -43 -41 -5 1 -8 -9 -8 -23 0 -14 5 -25 10
-25 6 0 9 -6 8 -12 -2 -7 2 -12 9 -11 7 2 10 -4 7 -12 -4 -8 -1 -15 6 -15 7 0
10 -8 7 -20 -3 -11 -1 -20 4 -20 6 0 8 -12 7 -27 -2 -19 1 -27 10 -25 7 1 28
-4 46 -12 41 -17 48 -12 34 19 -10 23 -11 23 -36 7 -25 -16 -26 -16 -18 3 5
11 10 29 13 40 4 16 3 17 -6 5 -8 -12 -13 -12 -23 -2 -9 9 -9 12 0 12 7 0 12
7 12 15 0 8 9 15 20 15 11 0 20 5 20 10 0 6 -4 10 -9 10 -5 0 -11 13 -13 29
-3 23 0 31 15 35 16 4 17 8 7 26 -6 12 -9 24 -6 28 3 3 6 0 6 -6 0 -7 7 -12
16 -12 10 0 14 6 10 15 -5 14 20 35 42 35 20 0 21 -31 2 -50 -10 -10 -20 -14
-22 -8 -2 6 -9 3 -17 -6 -11 -14 -11 -16 3 -16 9 0 16 -6 15 -12 -1 -7 -1 -24
0 -38 l2 -25 10 24 c8 19 12 21 24 11 8 -7 12 -17 9 -22 -8 -13 39 12 49 26 5
7 11 4 19 -9 10 -18 13 -15 29 30 24 69 24 29 -1 -48 -10 -34 -21 -75 -24 -92
-9 -50 -38 -159 -46 -168 -4 -4 -5 7 -2 25 l4 33 -35 -37 c-33 -34 -36 -36
-56 -21 -12 8 -25 12 -28 9 -4 -3 -1 -6 6 -6 7 0 9 -5 5 -12 -4 -7 -3 -8 4 -4
7 4 12 3 12 -3 0 -5 -8 -14 -17 -20 -10 -5 -15 -12 -12 -16 4 -3 14 1 22 10 9
8 20 15 26 15 17 0 13 -18 -6 -30 -13 -8 -14 -13 -5 -16 6 -3 12 -12 12 -20 0
-8 6 -11 18 -7 14 5 14 3 -3 -11 -19 -17 -19 -17 14 -12 l34 6 -7 -37 c-3 -21
-6 -57 -6 -80 0 -24 -4 -43 -9 -43 -5 0 -8 12 -6 26 2 17 -2 24 -11 20 -7 -3
-27 -1 -44 4 -24 7 -32 6 -37 -7 -3 -8 0 -18 6 -23 7 -4 12 -13 11 -21 -4 -28
0 -41 13 -36 6 2 20 -3 30 -11 16 -14 19 -14 27 -2 7 11 10 2 10 -27 0 -41 -1
-42 -23 -32 -19 8 -32 7 -63 -8 -32 -15 -39 -24 -41 -48 0 -17 -2 -35 -2 -42
-1 -15 -33 -25 -54 -17 -14 5 -14 10 -6 27 11 19 13 19 24 4 7 -9 16 -17 21
-17 4 0 3 5 -3 11 -12 12 -4 34 26 72 14 17 12 19 -23 21 -27 1 -45 34 -26 46
10 6 11 10 3 10 -7 0 -13 7 -13 15 0 8 6 15 14 15 8 0 20 16 27 35 7 19 19 35
26 35 7 0 13 9 13 20 0 11 4 20 10 20 24 0 -22 62 -51 68 -20 5 -29 23 -20 41
5 9 11 28 15 43 5 22 3 25 -14 21 -15 -4 -20 0 -20 15 0 12 -5 24 -12 28 -8 5
-6 11 6 20 17 12 14 40 -3 30 -4 -3 -13 0 -21 5 -13 9 -13 10 0 8 27 -3 40 1
40 11 0 6 -11 8 -27 4 -37 -9 -39 -12 -25 -34 9 -15 9 -20 1 -20 -12 0 -38
-29 -39 -43 0 -5 5 -5 10 -2 13 8 13 -1 0 -25 -9 -16 -5 -24 20 -46 35 -32 38
-50 9 -57 l-21 -6 21 -29 c25 -36 26 -42 5 -42 -10 0 -14 6 -10 15 4 12 -2 14
-35 11 -22 -2 -42 -6 -46 -9 -3 -4 -18 -4 -32 -2 -23 5 -24 4 -5 -4 16 -7 20
-16 17 -36 -4 -16 1 -33 13 -46 17 -19 17 -21 0 -51 -13 -20 -15 -32 -8 -37
11 -7 5 -51 -7 -51 -3 0 -14 7 -24 14 -13 10 -15 19 -9 37 5 13 5 35 1 49 -4
14 -7 18 -8 9 -1 -8 -7 -23 -14 -33 -12 -16 -14 -16 -34 3 -20 19 -63 25 -63
9 0 -13 -28 -9 -33 5 -2 6 -8 9 -12 5 -4 -4 2 -18 13 -32 19 -25 20 -25 25 -5
3 12 10 18 16 14 14 -8 14 -35 1 -35 -5 0 -10 -6 -10 -13 0 -7 -6 -21 -13 -32
-13 -16 -14 -15 -15 16 -1 39 -39 79 -75 79 -20 1 -20 2 -4 11 9 5 17 16 17
24 0 7 7 20 15 29 9 8 15 19 14 23 -2 4 6 9 17 11 15 2 16 1 5 -7 -10 -7 -7
-9 12 -8 15 1 27 8 27 15 0 6 6 12 14 12 8 0 16 5 18 12 2 6 10 8 16 4 16 -10
15 -26 -2 -26 -8 0 -17 -7 -20 -16 -8 -20 12 -47 29 -40 7 2 19 -1 26 -7 10
-10 11 -9 3 3 -11 16 7 66 19 54 12 -12 27 7 18 23 -4 9 -5 31 -1 49 5 19 4
37 -1 40 -5 3 -8 0 -7 -6 2 -7 -7 -14 -20 -16 -14 -2 -21 0 -17 6 3 5 -1 10
-9 10 -9 0 -18 -10 -22 -22 -3 -13 -20 -34 -37 -48 -17 -14 -28 -20 -24 -14 4
7 -8 11 -38 10 -27 -1 -38 -4 -29 -9 18 -10 18 -31 0 -24 -10 4 -13 1 -10 -7
3 -8 1 -17 -5 -21 -6 -3 -11 -1 -11 4 0 20 -21 11 -29 -11 -8 -22 -8 -22 -14
-3 -9 28 -12 158 -5 170 3 6 9 51 12 100 4 50 11 124 16 165 6 41 12 93 14
115 2 22 7 59 11 83 6 35 5 42 -9 42 -11 0 -16 -9 -17 -27 -1 -41 -12 -136
-29 -233 -16 -100 -33 -381 -27 -455 4 -40 12 -86 19 -101 10 -22 10 -28 0
-32 -22 -7 -12 -30 23 -52 35 -22 135 -35 135 -18 0 8 -5 9 -52 12 -41 3 -46
16 -7 18 51 2 83 -2 93 -13 6 -6 6 -9 -2 -9 -7 0 -12 -4 -12 -9 0 -5 103 -9
229 -10 189 -1 231 2 241 14 10 13 14 13 27 0 20 -21 40 -19 46 5 3 13 -2 25
-12 33 -21 14 -41 114 -21 102 6 -4 9 -14 5 -23 -3 -9 -3 -13 1 -9 4 4 13 2
21 -4 9 -9 13 -8 13 0 0 6 -4 11 -10 11 -5 0 -10 9 -10 20 0 11 -7 20 -15 20
-14 0 -20 20 -16 44 1 6 4 26 6 45 2 20 5 36 5 36 1 0 3 14 4 30 14 165 19
212 26 224 4 8 5 22 3 32 -3 11 1 21 10 25 9 3 14 11 11 18 -5 13 16 101 34
146 10 24 11 24 11 -9 1 -44 16 -29 24 22 5 33 4 37 -9 27 -12 -11 -14 -8 -11
20 4 36 36 68 48 49 8 -13 39 74 39 108 0 14 -4 22 -10 18 -6 -4 -8 -15 -5
-26 4 -10 2 -19 -3 -19 -19 0 -20 14 -1 57 23 53 25 122 4 149 -12 16 -14 17
-15 2z m-179 -229 c-9 -23 -9 -22 -8 8 1 18 6 28 10 24 4 -4 3 -18 -2 -32z
m59 -14 c0 -8 -6 -24 -12 -35 -11 -17 -10 -22 2 -30 12 -8 9 -10 -12 -10 -28
0 -42 29 -15 31 10 0 10 2 0 6 -7 2 -13 9 -13 14 0 14 23 38 38 39 6 0 12 -7
12 -15z m-210 -115 c0 -11 -7 -20 -15 -20 -8 0 -15 9 -15 20 0 11 7 20 15 20
8 0 15 -9 15 -20z m-10 -55 c0 -8 -7 -15 -15 -15 -8 0 -15 7 -15 15 0 8 7 15
15 15 8 0 15 -7 15 -15z m166 -311 c-4 -20 -10 -34 -12 -31 -3 3 -2 21 2 41 3
21 9 35 11 32 3 -3 2 -21 -1 -42z m-26 1 c0 -8 -7 -15 -15 -15 -8 0 -15 7 -15
15 0 8 7 15 15 15 8 0 15 -7 15 -15z m-225 -205 c0 -31 -3 -40 -16 -40 -13 0
-17 8 -15 33 4 46 5 47 19 47 8 0 12 -14 12 -40z m65 11 c0 -6 -4 -13 -10 -16
-5 -3 -10 1 -10 9 0 9 5 16 10 16 6 0 10 -4 10 -9z m-382 -116 c-3 -3 -9 2
-12 12 -6 14 -5 15 5 6 7 -7 10 -15 7 -18z m145 6 c3 -14 0 -17 -14 -14 -11 3
-19 12 -19 19 0 21 27 17 33 -5z m-181 -38 c17 -15 20 -15 28 -3 8 13 10 12
10 -2 0 -19 -41 -35 -59 -23 -12 7 -15 45 -4 45 3 0 15 -8 25 -17z m555 -38
c1 -28 -1 -43 -4 -35 -3 8 -12 19 -20 23 -8 5 -11 16 -7 29 5 18 4 19 -18 7
l-23 -12 19 22 c32 35 51 23 53 -34z m-357 19 c0 -16 -16 -19 -25 -4 -8 13 4
32 16 25 5 -4 9 -13 9 -21z m150 -20 c0 -16 -16 -19 -25 -4 -8 13 4 32 16 25
5 -4 9 -13 9 -21z m40 11 c0 -8 -7 -15 -15 -15 -8 0 -15 7 -15 15 0 8 7 15 15
15 8 0 15 -7 15 -15z m-293 -1 c-3 -3 -12 -4 -19 -1 -8 3 -5 6 6 6 11 1 17 -2
13 -5z m-129 -16 c19 -19 14 -30 -8 -18 -11 6 -20 15 -20 20 0 14 14 12 28 -2z
m169 6 c-3 -3 -12 -4 -19 -1 -8 3 -5 6 6 6 11 1 17 -2 13 -5z m353 -4 c0 -5
-5 -10 -11 -10 -5 0 -7 5 -4 10 3 6 8 10 11 10 2 0 4 -4 4 -10z m-297 -7 c-7
-2 -19 -2 -25 0 -7 3 -2 5 12 5 14 0 19 -2 13 -5z m127 -12 c33 -6 37 -9 15
-9 -16 0 -50 3 -75 7 -33 6 -37 9 -15 9 17 0 50 -3 75 -7z"/>
<path d="M4182 1163 c-6 -3 -10 -9 -6 -14 3 -5 -10 -9 -28 -9 -22 0 -28 -3
-20 -9 11 -7 10 -9 -3 -14 -9 -4 -13 -3 -10 3 3 6 1 10 -5 10 -6 0 -9 4 -6 9
4 5 -2 8 -11 6 -10 -2 -20 -4 -22 -4 -3 -1 0 -6 7 -13 18 -18 15 -28 -10 -29
-18 -1 -16 -3 10 -10 17 -5 32 -14 32 -21 0 -7 -5 -6 -15 2 -9 7 -18 10 -22 7
-3 -4 2 -9 11 -13 9 -3 16 -14 17 -23 0 -10 2 -11 6 -3 2 6 12 12 20 12 11 0
14 7 9 25 -5 18 -2 25 9 25 8 0 15 5 15 10 0 6 11 8 25 4 24 -6 26 -5 19 22
-8 35 -6 32 -22 27z"/>
<path d="M4393 1153 c-7 -2 -13 -9 -13 -14 0 -6 7 -6 19 0 21 12 31 -2 31 -45
0 -13 6 -24 13 -24 9 0 8 -3 -2 -9 -7 -5 -9 -11 -4 -14 15 -10 36 38 28 63 -5
17 -4 21 5 15 8 -5 11 -4 7 3 -4 5 -16 8 -27 5 -14 -4 -20 0 -20 11 0 16 -13
19 -37 9z"/>
<path d="M3958 1143 c7 -3 16 -2 19 1 4 3 -2 6 -13 5 -11 0 -14 -3 -6 -6z"/>
<path d="M4014 1113 c2 -15 8 -29 14 -31 9 -3 9 -9 1 -24 -6 -11 -9 -21 -7
-23 7 -7 48 7 48 15 0 11 -29 40 -40 40 -4 0 -6 8 -3 19 3 10 0 22 -5 25 -7 4
-10 -4 -8 -21z"/>
<path d="M3780 1080 c-7 -14 -7 -20 0 -20 5 0 10 6 10 14 0 8 6 17 13 19 9 4
9 6 0 6 -7 1 -17 -8 -23 -19z"/>
<path d="M3903 1073 c-10 -15 -27 -37 -38 -48 -39 -42 -70 -86 -70 -99 0 -20
-15 -33 -16 -15 -1 8 -1 17 0 22 0 4 -4 7 -9 7 -5 0 -10 -7 -10 -15 0 -8 -7
-15 -16 -15 -12 0 -15 7 -12 25 6 27 -6 43 -17 25 -4 -6 -11 -8 -16 -4 -6 3 0
-10 12 -29 13 -19 28 -33 33 -30 5 4 7 -1 3 -11 -4 -10 -7 -20 -7 -22 0 -3 -4
-2 -10 1 -6 3 -7 -1 -4 -10 4 -10 10 -12 18 -6 6 5 13 9 16 9 3 -1 16 2 29 7
13 4 26 3 30 -2 3 -5 14 -1 24 9 9 10 13 18 7 18 -5 0 -10 7 -10 15 0 9 -6 12
-15 9 -10 -4 -15 0 -15 16 0 16 5 20 18 16 17 -6 42 31 42 60 0 7 16 25 35 40
19 14 35 33 35 40 0 23 -18 16 -37 -13z"/>
<path d="M3921 1019 c-23 -34 -41 -65 -41 -70 0 -5 12 -9 28 -9 20 0 23 3 13
9 -12 8 -10 14 10 38 20 24 27 27 37 16 10 -10 9 -18 -4 -38 -23 -35 -9 -45
19 -14 12 14 35 26 51 27 27 2 55 25 56 47 0 5 -7 0 -15 -12 -17 -25 -51 -35
-64 -19 -5 6 -12 23 -16 38 -14 56 -30 53 -74 -13z"/>
<path d="M4174 1014 c-47 -41 -51 -42 -46 -19 6 33 -8 32 -42 -4 l-28 -29 23
-21 c25 -23 51 -13 30 12 -9 12 -7 14 11 10 27 -4 118 59 118 82 0 23 -11 18
-66 -31z"/>
<path d="M3721 1004 c0 -11 3 -14 6 -6 3 7 2 16 -1 19 -3 4 -6 -2 -5 -13z"/>
<path d="M3786 995 c-9 -26 -7 -32 5 -12 6 10 9 21 6 23 -2 3 -7 -2 -11 -11z"/>
<path d="M3946 991 c-4 -7 -5 -15 -2 -18 9 -9 19 4 14 18 -4 11 -6 11 -12 0z"/>
<path d="M3879 883 c-1 -10 -1 -22 0 -27 1 -4 -6 -15 -16 -23 -17 -13 -17 -13
2 -4 27 13 65 57 41 48 -9 -4 -16 -2 -16 2 0 5 6 12 13 14 7 3 5 6 -5 6 -10 1
-19 -7 -19 -16z"/>
<path d="M3940 870 c13 -8 13 -10 -1 -10 -43 0 -39 -47 4 -63 10 -4 16 -11 12
-16 -3 -5 -1 -12 5 -16 15 -9 85 64 72 77 -12 12 -32 2 -32 -16 0 -14 -35 -28
-44 -18 -14 13 -4 40 15 45 13 4 18 10 14 17 -6 9 -9 9 -15 0 -5 -9 -9 -9 -14
-1 -4 6 -13 11 -19 11 -7 0 -6 -4 3 -10z"/>
<path d="M1854 839 c-20 -22 -42 -26 -24 -4 9 10 9 15 1 15 -6 0 -11 -2 -11
-4 0 -2 -3 -11 -6 -19 -3 -9 2 -16 15 -20 12 -3 21 1 24 12 5 19 48 25 59 8 4
-6 15 -12 25 -12 11 0 16 -6 14 -15 -2 -8 -5 -24 -6 -35 -1 -13 -8 -19 -21
-17 -15 2 -16 1 -5 -7 10 -6 22 -4 38 6 12 8 31 12 40 9 13 -4 12 -1 -4 13
-13 11 -23 23 -23 28 0 21 -28 45 -62 52 -30 7 -40 5 -54 -10z m116 -69 c0 -5
-4 -10 -10 -10 -5 0 -10 5 -10 10 0 6 5 10 10 10 6 0 10 -4 10 -10z"/>
<path d="M1980 830 c-8 -5 -11 -12 -7 -17 5 -4 12 -1 16 6 12 18 23 -2 14 -26
-6 -16 -5 -16 10 -4 9 7 17 17 17 22 0 15 -35 28 -50 19z"/>
<path d="M3810 818 c0 -15 -10 -27 -26 -35 -30 -14 -44 -9 -44 13 0 8 -4 14
-9 14 -5 0 -7 -9 -4 -20 3 -11 9 -20 14 -20 5 0 9 -7 9 -15 0 -8 -7 -15 -15
-15 -8 0 -15 6 -15 13 0 8 -7 14 -15 14 -12 0 -14 -8 -11 -29 2 -15 1 -28 -3
-28 -4 0 -8 -15 -9 -32 -1 -18 -5 -50 -8 -70 -6 -41 8 -51 26 -18 7 12 16 17
27 13 12 -5 10 2 -7 25 -23 31 -23 32 -4 47 25 19 31 18 38 -1 4 -12 13 -14
32 -10 21 6 25 4 22 -11 -3 -14 -12 -17 -36 -15 -18 1 -32 -2 -32 -8 0 -5 5
-10 10 -10 6 0 10 -9 10 -19 0 -10 7 -22 16 -25 14 -5 14 -9 3 -24 -13 -15
-12 -16 4 -3 10 8 15 21 12 29 -4 10 0 13 13 10 13 -4 18 1 20 21 1 14 9 29
17 34 8 4 15 13 15 20 0 7 -4 6 -10 -3 -8 -12 -12 -11 -31 8 l-21 24 21 15
c14 9 20 21 16 33 -3 10 2 25 12 36 17 17 17 17 -8 11 -24 -6 -25 -4 -21 23 2
17 2 30 -2 30 -3 0 -6 -10 -6 -22z m0 -53 c0 -8 -7 -15 -15 -15 -8 0 -15 7
-15 15 0 8 7 15 15 15 8 0 15 -7 15 -15z"/>
<path d="M4464 792 c4 -7 3 -12 -3 -12 -6 0 -8 -7 -5 -15 4 -8 10 -15 15 -15
13 0 11 38 -3 46 -7 4 -8 3 -4 -4z"/>
<path d="M1880 771 c0 -6 4 -13 10 -16 6 -3 7 1 4 9 -7 18 -14 21 -14 7z"/>
<path d="M4480 693 c-37 -151 -43 -173 -51 -173 -12 0 -39 30 -39 43 0 7 -4 7
-12 -2 -11 -10 -10 -14 5 -22 9 -6 17 -15 17 -20 0 -6 -4 -7 -10 -4 -6 4 -7
-1 -3 -11 5 -13 3 -15 -7 -9 -9 5 -11 4 -6 -3 10 -17 26 -15 26 3 0 8 6 15 14
15 17 0 15 -29 -9 -173 -8 -49 -19 -141 -25 -204 -6 -64 -13 -120 -16 -124 -3
-5 29 -9 70 -9 l76 0 0 390 c0 215 -2 390 -4 390 -2 0 -14 -39 -26 -87z"/>
<path d="M1860 740 c0 -5 5 -10 11 -10 5 0 7 5 4 10 -3 6 -8 10 -11 10 -2 0
-4 -4 -4 -10z"/>
<path d="M2110 742 c0 -4 5 -13 12 -20 8 -8 8 -12 1 -12 -6 0 -13 7 -17 15 -3
8 -12 15 -21 15 -14 0 -14 -4 0 -37 21 -49 32 -60 47 -45 8 8 8 15 -3 29 -13
16 -12 17 4 4 11 -9 17 -10 17 -2 0 6 7 11 16 11 12 0 15 -6 11 -21 -5 -17 -3
-18 9 -8 13 10 11 16 -8 38 -13 14 -25 28 -27 31 -2 3 -1 -3 2 -12 4 -10 3
-18 -2 -18 -5 0 -11 9 -14 20 -5 19 -27 29 -27 12z"/>
<path d="M4323 730 c-53 -32 -73 -86 -46 -127 20 -30 41 -19 49 25 4 21 10 42
14 47 6 8 20 75 16 75 -1 0 -15 -9 -33 -20z"/>
<path d="M1959 690 c-13 -27 -27 -50 -30 -50 -4 0 -5 -8 -2 -19 3 -12 -4 -24
-19 -35 -19 -14 -21 -18 -8 -26 11 -7 17 -5 21 7 5 15 6 15 12 0 3 -9 14 -17
23 -17 16 0 16 1 0 19 -17 18 -16 20 3 26 21 6 29 25 11 25 -18 0 -11 46 11
74 14 18 18 31 12 37 -6 6 -18 -8 -34 -41z"/>
<path d="M2016 713 c-14 -49 -18 -93 -7 -93 6 0 18 17 28 38 14 33 17 34 20
15 3 -13 9 -23 14 -23 13 0 2 37 -19 61 -20 24 -29 24 -36 2z"/>
<path d="M1839 689 c-8 -16 -8 -24 0 -32 9 -9 13 -6 17 11 4 12 10 22 15 22 5
0 9 5 9 10 0 18 -29 10 -41 -11z"/>
<path d="M1881 656 c-43 -77 -102 -128 -88 -77 3 14 1 18 -9 14 -8 -3 -14 -18
-14 -35 0 -16 4 -27 9 -24 5 4 7 -4 4 -16 l-6 -23 22 23 c12 12 30 22 41 22
13 0 17 5 14 15 -8 19 6 42 16 26 5 -9 11 -7 21 5 9 12 10 15 2 10 -7 -4 -13
-3 -13 3 0 13 42 85 52 89 10 4 0 22 -12 22 -4 0 -22 -24 -39 -54z"/>
<path d="M4081 684 c0 -11 3 -14 6 -6 3 7 2 16 -1 19 -3 4 -6 -2 -5 -13z"/>
<path d="M1778 683 c7 -3 16 -2 19 1 4 3 -2 6 -13 5 -11 0 -14 -3 -6 -6z"/>
<path d="M3896 652 c6 -4 14 -14 17 -22 4 -10 6 -8 6 8 1 15 -5 22 -16 22 -11
0 -14 -3 -7 -8z"/>
<path d="M3990 645 c-7 -9 -8 -15 -2 -15 5 0 12 7 16 15 3 8 4 15 2 15 -2 0
-9 -7 -16 -15z"/>
<path d="M2180 630 c-12 -7 -12 -12 -3 -21 10 -10 9 -15 -3 -23 -11 -9 -8 -11
18 -11 18 0 36 4 40 10 11 15 10 55 -2 55 -5 0 -10 -7 -10 -15 0 -19 -18 -20
-22 0 -2 10 -7 12 -18 5z"/>
<path d="M3870 630 c-9 -6 -10 -10 -3 -10 6 0 15 5 18 10 8 12 4 12 -15 0z"/>
<path d="M3941 634 c-1 -6 6 -17 14 -24 12 -10 15 -9 15 4 0 10 -4 15 -9 12
-5 -4 -12 0 -14 6 -4 8 -6 9 -6 2z"/>
<path d="M1986 588 c5 -8 1 -9 -11 -4 -15 5 -16 4 -5 -9 17 -20 37 -19 42 3 4
12 -1 18 -14 19 -11 1 -16 -3 -12 -9z"/>
<path d="M3910 580 c0 -5 5 -10 10 -10 6 0 10 5 10 10 0 6 -4 10 -10 10 -5 0
-10 -4 -10 -10z"/>
<path d="M1975 530 c-3 -5 -1 -10 4 -10 6 0 11 5 11 10 0 6 -2 10 -4 10 -3 0
-8 -4 -11 -10z"/>
<path d="M3671 517 c-6 -16 -11 -42 -11 -59 0 -25 2 -28 14 -19 15 13 32 -1
22 -17 -9 -15 38 -46 71 -46 17 0 29 -4 27 -8 -3 -4 -1 -8 5 -8 5 0 13 5 16
10 3 6 1 10 -4 10 -6 0 -11 9 -11 20 0 16 -7 20 -37 20 -28 0 -34 -3 -23 -10
8 -5 10 -10 4 -10 -19 0 -24 12 -13 32 5 10 15 15 21 12 7 -5 8 -2 3 6 -4 7
-2 15 4 20 10 6 3 40 -15 68 -1 2 -12 -2 -24 -8 -18 -10 -24 -9 -31 1 -6 10
-11 6 -18 -14z"/>
<path d="M3878 533 c-10 -2 -18 -9 -18 -14 0 -5 -10 -14 -22 -19 -16 -6 -18
-9 -6 -9 9 -1 19 -7 21 -13 3 -8 6 -6 6 4 1 23 36 41 63 32 20 -6 21 -5 6 10
-17 16 -20 17 -50 9z"/>
<path d="M2235 500 c-3 -5 -1 -10 4 -10 6 0 11 5 11 10 0 6 -2 10 -4 10 -3 0
-8 -4 -11 -10z"/>
<path d="M2155 480 c10 -11 20 -20 23 -20 3 0 -3 9 -13 20 -10 11 -20 20 -23
20 -3 0 3 -9 13 -20z"/>
<path d="M3577 475 c3 -13 11 -29 18 -35 11 -9 12 -5 3 24 -13 41 -28 49 -21
11z"/>
<path d="M3906 484 c-9 -8 -16 -21 -16 -27 0 -7 5 -4 11 6 13 23 31 11 24 -16
-2 -12 -2 -17 1 -11 3 7 13 11 22 9 9 -1 11 0 5 2 -7 3 -13 11 -13 19 0 8 -5
14 -11 14 -5 0 -7 5 -4 10 9 15 -2 12 -19 -6z"/>
<path d="M2065 470 c-10 -11 -23 -17 -29 -13 -6 4 -5 -1 3 -10 15 -18 26 -23
16 -7 -3 6 0 13 9 16 8 3 17 12 20 20 7 19 2 18 -19 -6z"/>
<path d="M1790 470 c0 -5 5 -10 11 -10 5 0 7 5 4 10 -3 6 -8 10 -11 10 -2 0
-4 -4 -4 -10z"/>
<path d="M1777 416 c-3 -8 -1 -17 6 -20 9 -3 9 -5 0 -5 -7 -1 -13 -9 -13 -18
1 -16 2 -16 15 1 17 22 20 56 6 56 -5 0 -11 -6 -14 -14z"/>
<path d="M1955 416 c18 -13 18 -14 -4 -21 -15 -5 -19 -10 -12 -18 15 -19 9
-65 -9 -60 -13 4 -13 3 -1 -5 19 -13 22 -52 4 -59 -7 -3 -10 -10 -7 -15 4 -6
10 -5 15 3 7 11 9 11 9 -2 0 -9 7 -20 16 -23 10 -4 14 -14 11 -26 -3 -11 -1
-20 4 -20 5 0 9 13 9 28 0 16 3 32 7 35 9 10 62 -42 59 -57 -2 -6 -1 -8 1 -3
3 4 11 7 19 7 8 0 14 4 14 9 0 10 -52 56 -72 64 -10 4 -10 8 1 16 12 8 10 11
-12 16 -32 8 -34 16 -7 40 13 12 27 15 44 11 20 -5 24 -3 20 9 -4 8 -11 15
-16 15 -6 0 -7 8 -4 18 5 15 4 15 -8 -2 -8 -10 -19 -15 -25 -12 -5 4 -20 -4
-32 -16 -19 -20 -20 -20 -12 -3 6 11 8 26 6 33 -3 7 3 20 13 28 17 12 17 13 2
8 -10 -3 -18 -1 -18 5 0 6 -8 11 -17 11 -15 0 -15 -2 2 -14z"/>
<path d="M2020 420 c0 -5 5 -10 11 -10 5 0 7 5 4 10 -3 6 -8 10 -11 10 -2 0
-4 -4 -4 -10z"/>
<path d="M2075 390 c-3 -5 1 -10 10 -10 9 0 13 5 10 10 -3 6 -8 10 -10 10 -2
0 -7 -4 -10 -10z"/>
<path d="M2278 373 c-2 -16 2 -50 8 -78 18 -77 26 -167 14 -160 -5 3 -10 17
-10 31 0 14 -6 24 -14 24 -7 0 -22 12 -32 27 -10 16 -19 23 -22 15 -2 -6 -11
-12 -20 -13 -14 0 -13 -2 3 -9 14 -6 15 -9 5 -10 -12 0 -11 -3 3 -11 12 -7 16
-17 12 -30 -4 -11 -1 -26 5 -34 9 -11 9 -15 1 -15 -6 0 -11 -15 -10 -32 0 -33
0 -33 12 -8 14 31 29 42 38 29 4 -7 9 -4 12 5 11 29 35 17 42 -20 8 -44 25
-84 37 -84 11 0 10 44 -1 55 -5 6 -19 71 -31 145 -12 74 -24 146 -27 160 -4
14 -6 28 -5 33 1 4 -2 7 -7 7 -5 0 -11 -12 -13 -27z m-18 -238 c0 -8 -4 -15
-9 -15 -13 0 -22 16 -14 24 11 11 23 6 23 -9z"/>
<path d="M2220 379 c0 -5 5 -7 10 -4 6 3 10 8 10 11 0 2 -4 4 -10 4 -5 0 -10
-5 -10 -11z"/>
<path d="M1871 364 c0 -11 3 -14 6 -6 3 7 2 16 -1 19 -3 4 -6 -2 -5 -13z"/>
<path d="M2242 363 c-7 -12 -12 -29 -12 -37 0 -10 -6 -13 -15 -10 -9 4 -15 0
-15 -9 0 -8 -6 -18 -12 -20 -10 -4 -10 -6 0 -6 6 -1 12 -8 12 -16 0 -12 5 -11
29 3 16 9 28 20 25 23 -2 4 1 9 6 11 7 2 8 17 2 43 -8 38 -9 39 -20 18z"/>
<path d="M3673 366 c-10 -11 -9 -15 1 -19 16 -7 26 1 26 20 0 17 -12 16 -27
-1z"/>
<path d="M2070 361 c0 -6 4 -13 10 -16 6 -3 7 1 4 9 -7 18 -14 21 -14 7z"/>
<path d="M1780 317 c0 -14 5 -29 10 -32 8 -5 7 -11 0 -20 -19 -23 5 -57 35
-49 29 7 32 -2 8 -29 -10 -10 -18 -32 -19 -49 l-2 -30 22 23 c13 14 21 32 18
42 -3 10 5 27 17 38 22 21 28 35 10 24 -5 -4 -15 7 -22 24 -6 17 -17 31 -24
31 -16 0 -17 22 -1 38 8 8 9 12 1 12 -6 0 -13 -6 -16 -12 -3 -10 -7 -10 -20 1
-15 12 -17 11 -17 -12z m55 -67 c3 -5 1 -10 -4 -10 -6 0 -11 5 -11 10 0 6 2
10 4 10 3 0 8 -4 11 -10z"/>
<path d="M2090 330 c-12 -8 -10 -10 8 -10 13 0 20 4 17 10 -7 12 -6 12 -25 0z"/>
<path d="M2010 320 c0 -6 12 -16 28 -22 15 -7 35 -19 45 -27 13 -11 20 -12 29
-3 6 6 10 13 7 15 -23 15 -89 47 -98 47 -6 0 -11 -5 -11 -10z"/>
<path d="M2129 313 c-13 -16 -12 -17 4 -4 9 7 17 15 17 17 0 8 -8 3 -21 -13z"/>
<path d="M3587 223 c-11 -11 -8 -73 4 -73 6 0 8 -7 5 -16 -3 -8 -2 -12 3 -9 5
3 7 27 4 53 -5 52 -7 55 -16 45z"/>
<path d="M2001 161 c-6 -10 -7 -21 -4 -25 3 -3 2 -6 -3 -6 -6 0 -15 5 -22 12
-15 15 -19 10 -24 -31 -2 -21 2 -36 10 -38 7 -3 12 5 12 21 0 20 5 26 21 26
15 0 19 4 15 16 -5 14 -4 15 9 4 13 -11 12 -16 -12 -39 l-28 -26 28 -3 c21 -3
27 -8 23 -19 -3 -8 -6 -21 -6 -28 0 -7 -8 -16 -17 -18 -10 -3 -1 -5 20 -6 27
-1 37 3 37 14 0 20 17 19 29 -3 6 -9 11 -12 11 -5 0 6 8 14 18 16 10 3 6 5
-10 6 -19 1 -28 6 -28 17 0 10 6 14 14 11 10 -4 22 8 35 34 11 21 16 39 11 39
-16 0 -12 22 8 37 9 8 2 6 -15 -3 -18 -10 -33 -25 -33 -32 0 -9 -6 -12 -15 -8
-9 3 -18 -1 -21 -9 -8 -21 -24 -19 -22 3 5 59 -19 85 -41 43z"/>
<path d="M1840 104 c0 -1 6 -7 14 -13 10 -9 15 -8 19 2 3 8 -3 13 -14 13 -11
0 -19 -1 -19 -2z"/>
<path d="M1810 75 c0 -8 2 -15 4 -15 2 0 6 7 10 15 3 8 1 15 -4 15 -6 0 -10
-7 -10 -15z"/>
<path d="M1870 50 c-8 -15 -8 -20 1 -20 6 0 9 -6 6 -14 -4 -10 5 -13 33 -13
22 0 41 5 43 11 6 14 -20 39 -28 27 -3 -6 -15 -9 -26 -8 -14 1 -19 7 -16 19 7
24 0 23 -13 -2z"/>
<path d="M2815 27 c-8 -19 -2 -31 13 -26 5 2 6 13 2 24 -7 19 -8 19 -15 2z"/>
<path d="M2210 15 c0 -10 10 -15 34 -15 21 0 36 6 40 15 3 8 1 15 -3 15 -5 0
-11 -6 -14 -12 -4 -10 -7 -10 -18 0 -18 17 -39 15 -39 -3z"/>
<path d="M2145 10 c-4 -6 5 -10 20 -10 15 0 24 4 20 10 -8 13 -32 13 -40 0z"/>
</g>
</svg>
